<svg width="193" height="187" viewBox="0 0 193 187" fill="none" xmlns="http://www.w3.org/2000/svg">
<path d="M112.091 80.241C112.831 81.141 113.481 82.101 114.061 83.101C114.641 84.101 115.131 85.1409 115.531 86.2209C115.921 87.3009 116.221 88.421 116.431 89.551L154.561 82.541C153.961 79.261 153.071 76.021 151.931 72.871C151.301 71.171 150.601 69.5109 149.811 67.8809C148.581 68.7409 147.051 69.2109 145.611 68.9409C143.741 68.6109 142.371 67.151 140.551 66.791C138.961 66.451 137.181 67.0409 135.751 68.0009C134.301 68.9609 133.161 70.251 132.151 71.561C131.151 72.871 129.991 74.3409 128.381 74.7509C127.031 75.1009 126.051 74.5509 124.791 74.7109C122.881 74.9309 120.901 76.5809 119.161 77.9709C119.811 76.8009 120.351 75.6209 121.171 74.3209C121.971 73.0509 123.031 71.6709 124.401 70.6509C125.311 69.9709 126.341 69.481 127.361 68.981C128.371 68.481 129.361 67.9709 130.161 67.1609C131.041 66.261 131.501 65.1309 131.961 64.0109C132.191 63.4709 132.431 62.9309 132.691 62.3809C132.941 61.8509 133.221 61.311 133.521 60.791C134.131 59.751 134.861 58.7609 135.791 57.9409C137.421 56.4909 139.601 55.761 141.761 55.311C141.761 55.311 141.781 55.311 141.791 55.311C139.731 52.841 137.471 50.5509 135.041 48.4409L109.661 77.741C110.541 78.501 111.361 79.341 112.111 80.231L112.091 80.241Z" fill="#806D4B"/>
<path d="M95.7211 72.7509C96.9011 72.7309 98.0712 72.7709 99.2112 72.9609C101.481 73.3209 103.701 73.9909 105.741 75.0909L123.791 40.7809C119.251 38.3709 114.371 36.5909 109.351 35.4609C109.271 36.9509 108.681 38.4509 107.591 39.4309C106.181 40.6709 104.181 40.9009 102.781 42.0609C101.521 43.1409 100.891 44.8809 100.761 46.5909C100.621 48.3209 100.931 50.0409 101.331 51.6209C101.741 53.2009 102.171 55.0609 101.501 56.5609C100.951 57.8009 99.9011 58.3109 99.2411 59.3409C98.2311 60.9709 98.3012 63.5709 98.3112 65.7809C97.7912 64.6109 97.2012 63.3509 96.6912 61.9609C96.1912 60.5509 95.7712 58.8509 95.8112 57.1509C95.8412 56.0209 96.1012 54.9109 96.3312 53.8109C96.5612 52.7109 96.7712 51.6109 96.6312 50.4909C96.4712 49.2409 95.8712 48.1609 95.2712 47.1009C94.1612 45.0909 93.0112 42.8209 92.8812 40.3509C92.7512 38.1609 93.5312 36.0309 94.5212 34.0409C94.5212 34.0409 94.5212 34.0409 94.5212 34.0309C91.3212 34.1109 88.1012 34.4509 84.9412 35.0709L92.2612 73.1409C93.3912 72.9109 94.5411 72.8009 95.7211 72.7809V72.7509Z" fill="#806D4B"/>
<path d="M79.7211 80.9709C80.4211 80.0409 81.2011 79.1809 82.0411 78.3809C83.7311 76.7809 85.6811 75.4509 87.7911 74.5309L71.9312 39.1609C67.2412 41.2509 62.8412 43.9609 58.8712 47.1809C59.9912 48.1709 60.8112 49.5609 60.8812 51.0209C61.0012 52.9209 59.9011 54.5909 59.9711 56.4509C60.0111 58.0809 61.0012 59.6709 62.2712 60.8309C63.5312 62.0109 65.0712 62.8209 66.5712 63.5009C68.0812 64.1709 69.7811 64.9509 70.5511 66.4209C71.2111 67.6609 70.9011 68.7309 71.3411 69.9109C72.0111 71.7209 74.0712 73.2509 75.8312 74.6309C74.5512 74.2709 73.2612 74.0209 71.8212 73.5309C70.3812 73.0409 68.8212 72.3409 67.5012 71.2509C66.6312 70.5209 65.9212 69.6309 65.1912 68.7609C64.4612 67.8909 63.7412 67.0509 62.7712 66.4709C61.6812 65.8109 60.4811 65.6409 59.2911 65.4509C56.9911 65.0609 54.5312 64.5809 52.5012 63.1609C50.7112 61.9209 49.4811 59.9509 48.5411 57.9709C48.5411 57.9709 48.5411 57.9609 48.5411 57.9509C46.6211 60.5409 44.9112 63.2809 43.4312 66.1509L77.8812 83.9209C78.4112 82.9009 79.0211 81.9109 79.7211 80.9809V80.9709Z" fill="#806D4B"/>
<path d="M75.7012 95.2309C75.5812 94.0709 75.5912 92.8809 75.6812 91.7209C75.7712 90.5609 75.9312 89.4109 76.2212 88.3009L38.6112 78.9009C37.7812 82.1409 37.2812 85.4609 37.0212 88.7709C36.8912 90.5409 36.8312 92.3209 36.8512 94.0909C38.3312 93.8209 39.9012 94.0409 41.1012 94.8809C41.8912 95.4209 42.4412 96.1609 42.9712 96.9109C43.5112 97.6609 44.0712 98.4009 44.8012 98.9509C45.4512 99.4409 46.2512 99.7309 47.0912 99.8709C47.9312 100.011 48.8212 99.9909 49.6712 99.8609C51.3912 99.5909 52.9612 98.8909 54.4212 98.1309C55.8812 97.3609 57.5612 96.5109 59.1812 96.8109C59.8712 96.9309 60.3812 97.2209 60.8612 97.5309C61.3512 97.8309 61.8412 98.1509 62.4112 98.3509C64.2412 98.9409 66.7212 98.2709 68.8912 97.7309C67.8212 98.5109 66.8312 99.3709 65.5412 100.201C64.2912 101.011 62.7512 101.831 61.0812 102.191C59.9712 102.431 58.8412 102.441 57.7112 102.471C56.5812 102.501 55.4612 102.561 54.4112 102.961C53.2412 103.411 52.3412 104.251 51.4512 105.081C50.5912 105.871 49.6912 106.661 48.7012 107.361C47.7112 108.061 46.6412 108.651 45.4512 109.011C43.3612 109.651 41.0912 109.401 38.9212 108.911C38.9212 108.911 38.9112 108.911 38.9012 108.911C39.7412 112.031 40.8412 115.091 42.2012 118.021L77.4512 101.881C76.4712 99.7909 75.9112 97.5509 75.6912 95.2409L75.7012 95.2309Z" fill="#806D4B"/>
<path d="M79.9112 105.911L49.2712 129.651C52.3912 133.691 56.0412 137.321 60.1012 140.431C60.8012 139.111 61.9512 137.991 63.3512 137.581C64.2512 137.321 65.1912 137.331 66.1112 137.361C66.5712 137.381 67.0312 137.401 67.4812 137.391C67.9412 137.371 68.4012 137.311 68.8412 137.191C70.4312 136.761 71.7212 135.451 72.5612 133.941C73.4012 132.441 73.8412 130.731 74.1512 129.121C74.4412 127.501 74.8112 125.671 76.0512 124.571C77.1012 123.631 78.2212 123.671 79.2612 122.971C80.8612 121.891 81.8712 119.521 82.7812 117.491C82.7412 118.811 82.7812 120.141 82.6512 121.641C82.5012 123.161 82.2012 124.851 81.4512 126.381C80.9512 127.391 80.2512 128.311 79.5812 129.211C78.9112 130.111 78.2712 131.021 77.9312 132.091C77.5512 133.311 77.6612 134.531 77.7612 135.721C77.8512 136.871 77.9112 138.101 77.8412 139.301C77.7812 140.511 77.5912 141.721 77.1312 142.861C76.3412 144.901 74.7412 146.551 73.0212 147.921C73.0212 147.921 73.0112 147.931 73.0012 147.941C75.9812 149.211 79.0612 150.231 82.2212 150.991L91.3212 113.311C89.0912 112.771 86.9412 111.871 85.0112 110.591C83.0712 109.331 81.3112 107.741 79.9012 105.891L79.9112 105.911Z" fill="#806D4B"/>
<path d="M106.011 111.431C104.991 111.971 103.941 112.431 102.851 112.811C100.681 113.571 98.3812 113.911 96.0212 113.911L95.7212 152.671C100.801 152.701 105.921 152.101 110.891 150.831C110.281 149.461 110.121 147.861 110.661 146.511C111.341 144.731 113.041 143.671 113.741 141.951C114.391 140.451 114.141 138.591 113.481 137.011C112.811 135.411 111.751 134.031 110.671 132.791C109.571 131.561 108.361 130.131 108.261 128.481C108.171 127.081 108.901 126.231 108.991 124.971C109.141 123.051 107.891 120.801 106.861 118.821C107.881 119.681 108.941 120.431 110.061 121.491C111.161 122.521 112.301 123.811 113.041 125.351C113.531 126.371 113.811 127.481 114.111 128.571C114.411 129.661 114.731 130.731 115.361 131.661C116.071 132.691 117.101 133.361 118.111 134.031C119.081 134.681 120.071 135.381 120.971 136.171C121.881 136.971 122.711 137.871 123.331 138.941C124.441 140.821 124.751 143.101 124.781 145.301V145.341C127.621 143.771 130.331 141.961 132.881 139.961L108.891 109.501C107.981 110.221 107.011 110.871 106.001 111.421L106.011 111.431Z" fill="#806D4B"/>
<path d="M116.781 93.3208C116.751 95.6808 116.411 97.9708 115.621 100.141C114.851 102.301 113.741 104.361 112.271 106.171L142.531 130.401C145.731 126.431 148.401 122.011 150.471 117.331C149.021 116.961 147.661 116.101 146.931 114.841C146.691 114.431 146.521 114.001 146.401 113.571C146.261 113.121 146.161 112.671 146.071 112.221C145.881 111.311 145.731 110.421 145.261 109.611C144.451 108.171 142.871 107.221 141.211 106.761C139.541 106.291 137.791 106.271 136.161 106.361C134.531 106.471 132.641 106.541 131.291 105.591C130.151 104.801 129.871 103.691 128.991 102.851C127.551 101.551 125.021 101.131 122.831 100.721C123.491 100.571 124.151 100.421 124.791 100.271C125.471 100.121 126.141 99.9708 126.891 99.8508C128.381 99.6208 130.131 99.5308 131.791 99.9008C132.901 100.151 133.931 100.611 134.971 101.051C136.001 101.481 137.041 101.901 138.171 101.971C139.421 102.051 140.631 101.671 141.751 101.281C143.931 100.571 146.401 99.8808 148.851 100.221C151.021 100.511 152.961 101.671 154.731 103.011C154.731 103.011 154.751 103.021 154.761 103.031C155.291 99.8108 155.551 96.5608 155.561 93.3308H116.791L116.781 93.3208Z" fill="#806D4B"/>
<path d="M107.906 105.039C114.369 98.5757 114.369 88.0969 107.906 81.6337C101.443 75.1705 90.9639 75.1705 84.5007 81.6337C78.0375 88.0969 78.0375 98.5757 84.5007 105.039C90.9639 111.502 101.443 111.502 107.906 105.039Z" fill="#806D4B"/>
<path d="M22.1013 122.971C21.7413 123.301 21.3613 123.641 21.0213 124.031C18.7613 126.611 18.4113 129.881 20.0513 133.011C20.3313 133.551 20.6813 134.041 21.0413 134.541C21.9313 135.771 23.1013 136.551 24.5113 136.871C24.5513 136.871 24.5813 136.891 24.6213 136.901C25.3413 137.261 26.2413 137.581 26.9713 137.561C27.1113 137.601 27.2313 137.641 27.3713 137.681C28.1213 137.911 28.8413 138.031 29.5313 138.031C30.8013 138.031 31.9713 137.641 33.0213 136.851C33.7113 136.331 34.3913 135.811 35.0613 135.261C35.8213 134.631 36.3013 133.781 36.4513 132.801C36.5513 132.091 36.6413 131.371 36.7213 130.741L36.8113 129.991V129.451C36.8113 129.211 36.8013 129.031 36.8113 128.851C36.9313 127.401 36.3813 126.171 35.1613 125.201C34.8513 124.951 34.5513 124.671 34.2513 124.401C34.0113 124.181 33.7713 123.961 33.5213 123.751C32.1213 122.561 30.6913 121.951 29.1713 121.901C28.1813 121.871 27.3113 121.771 26.5013 121.601C24.9513 121.271 23.5213 121.661 22.3913 122.711L22.0813 122.991L22.1013 122.971ZM32.7513 124.661C32.9813 124.861 33.2113 125.071 33.4413 125.281C33.7613 125.571 34.0813 125.871 34.4113 126.141C35.3213 126.861 35.7013 127.691 35.6113 128.741C35.5913 128.961 35.5913 129.181 35.6013 129.461V129.911L35.5213 130.581C35.4413 131.211 35.3613 131.911 35.2513 132.611C35.1513 133.301 34.8313 133.871 34.3013 134.311C33.6513 134.841 32.9813 135.361 32.3113 135.861C31.1113 136.751 29.7713 137.001 28.1813 136.611C28.5013 135.461 28.3613 133.421 28.4113 132.641C28.6213 129.451 28.7313 126.261 28.7613 123.071C28.8913 123.071 29.0113 123.091 29.1513 123.101C30.3913 123.141 31.5713 123.651 32.7613 124.661H32.7513Z" fill="#806D4B"/>
<path d="M161.941 133.501C162.831 134.721 164.001 135.511 165.411 135.831C166.361 136.041 167.311 136.341 168.271 136.641C169.021 136.871 169.741 136.991 170.431 136.991C171.701 136.991 172.871 136.601 173.921 135.811C174.611 135.291 175.291 134.771 175.961 134.221C176.721 133.591 177.201 132.741 177.351 131.761C177.451 131.051 177.541 130.331 177.621 129.701L177.711 128.951V128.421C177.711 128.181 177.701 127.991 177.711 127.811C177.831 126.361 177.281 125.131 176.061 124.161C175.741 123.911 175.451 123.631 175.151 123.361C174.911 123.141 174.671 122.921 174.421 122.711C173.021 121.521 171.591 120.911 170.071 120.861C169.081 120.831 168.211 120.731 167.401 120.561C165.841 120.231 164.421 120.621 163.301 121.671L163.001 121.941C162.631 122.271 162.261 122.611 161.921 123.001C159.661 125.581 159.311 128.851 160.951 131.981C161.231 132.521 161.581 133.011 161.941 133.511V133.501ZM162.831 123.801C163.121 123.461 163.461 123.161 163.821 122.841L164.131 122.561C164.771 121.961 165.511 121.661 166.351 121.661C166.611 121.661 166.881 121.691 167.161 121.751C167.551 121.831 167.961 121.901 168.391 121.951C168.411 125.181 168.521 128.401 168.741 131.621C168.791 132.401 168.651 134.411 168.971 135.561C168.851 135.531 168.741 135.501 168.621 135.471C167.671 135.171 166.701 134.871 165.701 134.641C164.571 134.381 163.671 133.781 162.951 132.781C162.621 132.321 162.301 131.871 162.051 131.401C160.631 128.711 160.921 126.011 162.851 123.801H162.831Z" fill="#806D4B"/>
<path d="M90.9614 183.351C91.7614 184.451 92.8014 185.191 94.1614 185.501C95.1714 185.731 96.1614 186.041 97.1514 186.351C98.9914 186.931 100.791 186.791 102.391 185.591C103.091 185.071 103.791 184.531 104.461 183.971C105.131 183.421 105.541 182.691 105.661 181.831C105.811 180.811 105.931 179.791 106.031 178.991C106.031 178.441 106.011 178.121 106.031 177.801C106.141 176.461 105.611 175.421 104.571 174.591C103.981 174.121 103.451 173.571 102.871 173.081C101.691 172.081 100.361 171.381 98.7814 171.331C97.8214 171.301 96.8814 171.201 95.9314 171.011C94.5614 170.721 93.3114 171.021 92.2614 172.001C91.7914 172.431 91.3014 172.851 90.8814 173.331C88.6914 175.821 88.4314 178.921 89.9714 181.851C90.2514 182.371 90.6014 182.871 90.9414 183.351H90.9614Z" fill="#806D4B"/>
<path d="M59.5213 158.221C59.2013 157.961 58.8913 157.681 58.5813 157.401C58.3413 157.171 58.0913 156.951 57.8313 156.731C56.3913 155.511 54.9312 154.891 53.3612 154.831C52.3212 154.791 51.4513 154.691 50.6213 154.521C49.0313 154.181 47.5712 154.581 46.4112 155.661L46.1012 155.951C45.7312 156.291 45.3412 156.641 44.9912 157.041C42.6712 159.681 42.3113 163.041 44.0013 166.251C44.3013 166.811 44.6713 167.331 45.0213 167.821C45.9313 169.081 47.1313 169.881 48.5813 170.211C49.5513 170.431 50.4813 170.721 51.5213 171.051C52.2913 171.291 53.0212 171.411 53.7312 171.411C55.0312 171.411 56.2313 171.011 57.3113 170.201C58.0213 169.671 58.7212 169.131 59.4112 168.571C60.1912 167.931 60.6813 167.061 60.8313 166.051C60.9313 165.341 61.0212 164.631 61.1012 163.991L61.2013 163.161V162.601C61.2013 162.351 61.1913 162.171 61.2013 161.981C61.3313 160.501 60.7613 159.241 59.5113 158.241L59.5213 158.221ZM59.9912 161.861C59.9712 162.081 59.9712 162.311 59.9812 162.601V163.061L59.8913 163.811C59.8113 164.441 59.7313 165.141 59.6213 165.841C59.5213 166.551 59.1813 167.141 58.6413 167.591C58.5213 167.691 58.3913 167.781 58.2613 167.881C58.1713 167.881 58.0913 167.881 58.0013 167.881C57.7313 167.951 57.4813 167.951 57.2113 167.841C57.1913 167.841 57.1812 167.831 57.1612 167.821C56.9512 167.801 56.7412 167.771 56.5312 167.741C56.3112 167.731 56.1013 167.701 55.8913 167.661C55.8713 167.661 55.8513 167.661 55.8213 167.671C55.5513 167.741 55.3013 167.661 55.1313 167.451C55.0413 167.421 54.9512 167.391 54.8612 167.351C53.6212 166.941 52.5312 166.251 51.8512 165.111C51.5812 164.751 51.3412 164.361 51.1612 163.951C50.9612 163.481 50.8413 162.991 50.7713 162.491C50.4613 161.681 50.2812 160.851 50.3512 159.981C50.4412 158.791 50.5713 157.611 50.6913 156.431C50.7113 156.211 50.7313 155.991 50.7613 155.761C51.5513 155.901 52.3813 155.991 53.3313 156.031C54.6113 156.071 55.8212 156.601 57.0512 157.641C57.2912 157.851 57.5213 158.061 57.7613 158.281C58.0913 158.581 58.4213 158.891 58.7613 159.161C59.6913 159.911 60.0913 160.761 60.0013 161.851L59.9912 161.861Z" fill="#806D4B"/>
<path d="M176.221 98.9709C177.131 100.231 178.331 101.031 179.781 101.361C180.751 101.581 181.741 101.891 182.721 102.201C183.491 102.441 184.221 102.561 184.931 102.561C186.231 102.561 187.431 102.161 188.511 101.351C189.221 100.821 189.921 100.281 190.611 99.7209C191.391 99.0809 191.881 98.2109 192.031 97.2009C192.141 96.4609 192.231 95.721 192.311 95.061L192.401 94.311V93.7609C192.401 93.5109 192.391 93.3209 192.401 93.1409C192.531 91.6609 191.961 90.4009 190.711 89.4009C190.391 89.1409 190.081 88.8609 189.781 88.5809C189.531 88.3509 189.291 88.1209 189.031 87.9109C187.591 86.6909 186.131 86.0709 184.571 86.0109C183.531 85.9709 182.661 85.8709 181.821 85.7009C180.231 85.3609 178.771 85.7609 177.611 86.8409L177.301 87.1209C176.931 87.4609 176.541 87.8109 176.191 88.2109C173.871 90.8609 173.511 94.2109 175.201 97.4209C175.491 97.9709 175.851 98.4809 176.221 98.9909V98.9709ZM188.241 88.8209C188.481 89.0309 188.721 89.2409 188.951 89.4609C189.281 89.7609 189.601 90.0609 189.951 90.3409C190.881 91.0909 191.281 91.9409 191.191 93.0209C191.171 93.2409 191.171 93.4709 191.181 93.7709V94.2209L191.101 94.9009C191.021 95.5509 190.931 96.2809 190.821 97.0109C190.721 97.7209 190.381 98.3109 189.841 98.7609C189.721 98.8609 189.591 98.9509 189.461 99.0509C189.371 99.0509 189.291 99.0509 189.201 99.0509C188.931 99.1209 188.681 99.1209 188.411 99.0109C188.391 99.0109 188.381 99.0009 188.361 98.9909C188.151 98.9709 187.941 98.9409 187.731 98.9109C187.511 98.8909 187.301 98.8709 187.091 98.8309C187.071 98.8309 187.051 98.8309 187.021 98.8409C186.751 98.9109 186.501 98.8309 186.331 98.6209C186.241 98.591 186.151 98.5609 186.061 98.5209C184.821 98.1109 183.731 97.4209 183.051 96.2809C182.781 95.9209 182.541 95.5309 182.361 95.1209C182.161 94.6509 182.041 94.1609 181.971 93.6609C181.661 92.8509 181.481 92.0209 181.551 91.1509C181.641 89.9609 181.771 88.7809 181.891 87.6009C181.911 87.3809 181.931 87.1609 181.961 86.9309C182.751 87.0709 183.581 87.1609 184.541 87.2009C185.821 87.2409 187.031 87.771 188.261 88.811L188.241 88.8209Z" fill="#806D4B"/>
<path d="M2.0513 99.061C2.9613 100.321 4.16129 101.121 5.61129 101.451C6.5813 101.671 7.5613 101.981 8.5513 102.291C9.3213 102.531 10.0513 102.651 10.7613 102.651C12.0613 102.651 13.2613 102.251 14.3413 101.441C15.0513 100.911 15.7513 100.371 16.4413 99.811C17.0413 99.321 17.4613 98.681 17.7013 97.961C18.2213 97.131 18.6413 96.261 18.8513 95.261C19.0813 94.181 19.1213 93.151 18.8913 92.091C18.3913 89.811 16.9213 88.221 15.0813 86.951C14.2513 86.381 13.3313 86.291 12.3513 86.491C11.7213 86.261 11.0713 86.131 10.4113 86.101C9.37131 86.061 8.50129 85.961 7.67129 85.791C6.08129 85.451 4.6213 85.851 3.4613 86.931L3.1513 87.211C2.7813 87.551 2.39132 87.901 2.04132 88.301C-0.278682 90.951 -0.638703 94.301 1.0513 97.511C1.3513 98.071 1.72132 98.591 2.07132 99.081L2.0513 99.061ZM2.9313 89.091C3.2313 88.751 3.58131 88.431 3.94131 88.101L4.26132 87.811C4.92132 87.191 5.6913 86.881 6.5513 86.881C6.8213 86.881 7.10131 86.911 7.38131 86.971C8.28131 87.161 9.2213 87.271 10.3313 87.311C10.8613 87.331 11.3813 87.441 11.9013 87.621C11.9013 87.651 11.9013 87.681 11.9013 87.711C12.0213 88.891 12.1513 90.081 12.2413 91.261C12.3113 92.131 12.1313 92.961 11.8213 93.771C11.7513 94.271 11.6313 94.761 11.4313 95.231C11.2513 95.641 11.0213 96.031 10.7413 96.391C10.0613 97.541 8.97129 98.231 7.73129 98.631C7.64129 98.661 7.5513 98.701 7.4613 98.731C7.2913 98.931 7.0413 99.021 6.7713 98.951C6.7513 98.951 6.73129 98.951 6.70129 98.941C6.49129 98.981 6.27131 99.011 6.06131 99.021C5.85131 99.051 5.6413 99.081 5.4313 99.101C5.4113 99.101 5.40131 99.111 5.38131 99.121C5.10131 99.231 4.85131 99.231 4.59131 99.161C4.36131 99.171 4.1313 99.171 3.9013 99.181C3.9013 99.211 3.88131 99.241 3.88131 99.271C3.57131 99.011 3.28131 98.721 3.03131 98.361C2.69131 97.891 2.36132 97.431 2.10132 96.941C0.641315 94.171 0.931302 91.381 2.9313 89.111V89.091Z" fill="#806D4B"/>
<path d="M146.901 155.681C146.131 155.151 145.271 155.031 144.361 155.181C143.761 154.971 143.141 154.851 142.511 154.831C141.471 154.791 140.601 154.691 139.761 154.521C138.171 154.181 136.711 154.581 135.551 155.661L135.241 155.941C134.871 156.281 134.481 156.631 134.131 157.031C131.811 159.681 131.451 163.031 133.141 166.241C133.431 166.791 133.791 167.301 134.161 167.811C135.071 169.071 136.271 169.871 137.721 170.201C138.001 170.261 138.291 170.351 138.571 170.421C139.011 170.621 139.471 170.751 139.931 170.811C140.171 170.881 140.421 170.961 140.661 171.031C141.431 171.271 142.161 171.391 142.871 171.391C144.171 171.391 145.371 170.991 146.451 170.181C147.161 169.651 147.861 169.111 148.551 168.551C149.331 167.911 149.821 167.041 149.971 166.031C149.971 165.971 149.981 165.921 149.991 165.861C150.281 165.281 150.521 164.671 150.671 164.001C150.901 162.921 150.941 161.891 150.711 160.831C150.211 158.551 148.741 156.961 146.901 155.691V155.681ZM134.231 165.661C132.771 162.891 133.061 160.101 135.061 157.831C135.361 157.491 135.711 157.171 136.071 156.841L136.391 156.551C137.051 155.931 137.821 155.621 138.681 155.621C138.951 155.621 139.221 155.651 139.511 155.711C140.411 155.901 141.351 156.011 142.461 156.051C142.891 156.061 143.311 156.141 143.721 156.261C143.721 156.321 143.731 156.391 143.741 156.451C143.861 157.631 143.991 158.821 144.081 160.001C144.151 160.871 143.971 161.701 143.661 162.511C143.591 163.011 143.471 163.501 143.271 163.971C143.091 164.381 142.861 164.771 142.581 165.131C141.901 166.281 140.811 166.971 139.571 167.371C139.481 167.401 139.391 167.441 139.301 167.471C139.131 167.671 138.881 167.761 138.611 167.691C138.591 167.691 138.571 167.691 138.541 167.681C138.331 167.721 138.111 167.751 137.901 167.761C137.691 167.791 137.481 167.821 137.271 167.841C137.251 167.841 137.241 167.851 137.221 167.861C136.941 167.971 136.691 167.971 136.431 167.901C136.251 167.901 136.071 167.911 135.891 167.911C135.631 167.671 135.381 167.411 135.151 167.101C134.811 166.621 134.471 166.151 134.221 165.671L134.231 165.661Z" fill="#806D4B"/>
<path d="M22.1013 63.7109C21.7413 63.3809 21.3613 63.0409 21.0213 62.6509C18.7613 60.0709 18.4113 56.8009 20.0513 53.6709C20.3313 53.1309 20.6813 52.6409 21.0413 52.1409C21.9313 50.9109 23.1013 50.1309 24.5113 49.8109C24.5513 49.8109 24.5813 49.7909 24.6213 49.7809C25.3413 49.4209 26.2413 49.1009 26.9713 49.1209C27.1113 49.0809 27.2313 49.0409 27.3713 49.0009C28.1213 48.7709 28.8413 48.6509 29.5313 48.6509C30.8013 48.6509 31.9713 49.0409 33.0213 49.8309C33.7113 50.3509 34.3913 50.8709 35.0613 51.4209C35.8213 52.0509 36.3013 52.9009 36.4513 53.8809C36.5513 54.5909 36.6413 55.3109 36.7213 55.9409L36.8113 56.6909V57.2309C36.8113 57.4709 36.8013 57.6509 36.8113 57.8309C36.9313 59.2809 36.3813 60.5109 35.1613 61.4809C34.8513 61.7309 34.5513 62.0109 34.2513 62.2809C34.0113 62.5009 33.7713 62.7209 33.5213 62.9309C32.1213 64.1209 30.6913 64.7309 29.1713 64.7809C28.1813 64.8109 27.3113 64.9109 26.5013 65.0809C24.9513 65.4109 23.5213 65.0209 22.3913 63.9709L22.0813 63.6909L22.1013 63.7109ZM32.7513 62.0109C32.9813 61.8109 33.2113 61.6009 33.4413 61.3909C33.7613 61.1009 34.0813 60.8009 34.4113 60.5309C35.3213 59.8109 35.7013 58.9809 35.6113 57.9309C35.5913 57.7109 35.5913 57.4909 35.6013 57.2109V56.7609L35.5213 56.0909C35.4413 55.4609 35.3613 54.7609 35.2513 54.0609C35.1513 53.3709 34.8313 52.8009 34.3013 52.3609C33.6513 51.8309 32.9813 51.3109 32.3113 50.8109C31.1113 49.9209 29.7713 49.6709 28.1813 50.0609C28.5013 51.2109 28.3613 53.2509 28.4113 54.0309C28.6213 57.2209 28.7313 60.4109 28.7613 63.6009C28.8913 63.6009 29.0113 63.5809 29.1513 63.5709C30.3913 63.5309 31.5713 63.0209 32.7613 62.0109H32.7513Z" fill="#806D4B"/>
<path d="M161.941 53.181C162.831 51.961 164.001 51.171 165.411 50.851C166.361 50.641 167.311 50.341 168.271 50.041C169.021 49.811 169.741 49.6909 170.431 49.6909C171.701 49.6909 172.871 50.081 173.921 50.871C174.611 51.391 175.291 51.9109 175.961 52.4609C176.721 53.0909 177.201 53.941 177.351 54.921C177.451 55.631 177.541 56.351 177.621 56.981L177.711 57.731V58.2609C177.711 58.5009 177.701 58.691 177.711 58.871C177.831 60.321 177.281 61.5509 176.061 62.5209C175.741 62.7709 175.451 63.0509 175.151 63.3209C174.911 63.5409 174.671 63.7609 174.421 63.9709C173.021 65.1609 171.591 65.7709 170.071 65.8209C169.081 65.8509 168.211 65.951 167.401 66.121C165.841 66.451 164.421 66.0609 163.301 65.0109L163.001 64.741C162.631 64.411 162.261 64.071 161.921 63.681C159.661 61.101 159.311 57.8309 160.951 54.7009C161.231 54.1609 161.581 53.671 161.941 53.171V53.181ZM162.831 62.8809C163.121 63.2209 163.461 63.5209 163.821 63.8409L164.131 64.121C164.771 64.721 165.511 65.0209 166.351 65.0209C166.611 65.0209 166.881 64.991 167.161 64.931C167.551 64.851 167.961 64.781 168.391 64.731C168.411 61.501 168.521 58.281 168.741 55.061C168.791 54.281 168.651 52.271 168.971 51.121C168.851 51.151 168.741 51.1809 168.621 51.2109C167.671 51.5109 166.701 51.811 165.701 52.041C164.571 52.301 163.671 52.9009 162.951 53.9009C162.621 54.3609 162.301 54.8109 162.051 55.2809C160.631 57.9709 160.921 60.6709 162.851 62.8809H162.831Z" fill="#806D4B"/>
<path d="M90.9614 3.33087C91.7614 2.23087 92.8014 1.49091 94.1614 1.18091C95.1714 0.950908 96.1614 0.640871 97.1514 0.330871C98.9914 -0.249129 100.791 -0.109119 102.391 1.09088C103.091 1.61088 103.791 2.15088 104.461 2.71088C105.131 3.26088 105.541 3.99089 105.661 4.85089C105.811 5.87089 105.931 6.89086 106.031 7.69086C106.031 8.24086 106.011 8.56086 106.031 8.88086C106.141 10.2209 105.611 11.2609 104.571 12.0909C103.981 12.5609 103.451 13.1109 102.871 13.6009C101.691 14.6009 100.361 15.3009 98.7814 15.3509C97.8214 15.3809 96.8814 15.4809 95.9314 15.6709C94.5614 15.9609 93.3114 15.6609 92.2614 14.6809C91.7914 14.2509 91.3014 13.8309 90.8814 13.3509C88.6914 10.8609 88.4314 7.76087 89.9714 4.83087C90.2514 4.31087 90.6014 3.81087 90.9414 3.33087H90.9614Z" fill="#806D4B"/>
<path d="M59.5213 28.4609C59.2013 28.7209 58.8913 29.0009 58.5813 29.2809C58.3413 29.5109 58.0913 29.7309 57.8313 29.9509C56.3913 31.1709 54.9312 31.7909 53.3612 31.8509C52.3212 31.8909 51.4513 31.9909 50.6213 32.1609C49.0313 32.5009 47.5712 32.1009 46.4112 31.0209L46.1012 30.7309C45.7312 30.3909 45.3412 30.0409 44.9912 29.6409C42.6712 27.0009 42.3113 23.6409 44.0013 20.4309C44.3013 19.8709 44.6713 19.3509 45.0213 18.8609C45.9313 17.6009 47.1313 16.8009 48.5813 16.4709C49.5513 16.2509 50.4813 15.9609 51.5213 15.6309C52.2913 15.3909 53.0212 15.2709 53.7312 15.2709C55.0312 15.2709 56.2313 15.6709 57.3113 16.4809C58.0213 17.0109 58.7212 17.5509 59.4112 18.1109C60.1912 18.7509 60.6813 19.6209 60.8313 20.6309C60.9313 21.3409 61.0212 22.0509 61.1012 22.6909L61.2013 23.5209V24.0809C61.2013 24.3309 61.1913 24.5109 61.2013 24.7009C61.3313 26.1809 60.7613 27.4409 59.5113 28.4409L59.5213 28.4609ZM59.9912 24.8209C59.9712 24.6009 59.9712 24.3709 59.9812 24.0809V23.6209L59.8913 22.8709C59.8113 22.2409 59.7313 21.5409 59.6213 20.8409C59.5213 20.1309 59.1813 19.5409 58.6413 19.0909C58.5213 18.9909 58.3913 18.9009 58.2613 18.8009C58.1713 18.8009 58.0913 18.8009 58.0013 18.8009C57.7313 18.7309 57.4813 18.7309 57.2113 18.8409C57.1913 18.8409 57.1812 18.8509 57.1612 18.8609C56.9512 18.8809 56.7412 18.9109 56.5312 18.9409C56.3112 18.9509 56.1013 18.9809 55.8913 19.0209C55.8713 19.0209 55.8513 19.0209 55.8213 19.0109C55.5513 18.9409 55.3013 19.0209 55.1313 19.2309C55.0413 19.2609 54.9512 19.2909 54.8612 19.3309C53.6212 19.7409 52.5312 20.4309 51.8512 21.5709C51.5812 21.9309 51.3412 22.3209 51.1612 22.7309C50.9612 23.2009 50.8413 23.6909 50.7713 24.1909C50.4613 25.0009 50.2812 25.8309 50.3512 26.7009C50.4412 27.8909 50.5713 29.0709 50.6913 30.2509C50.7113 30.4709 50.7313 30.6909 50.7613 30.9209C51.5513 30.7809 52.3813 30.6909 53.3313 30.6509C54.6113 30.6109 55.8212 30.0809 57.0512 29.0409C57.2912 28.8309 57.5213 28.6209 57.7613 28.4009C58.0913 28.1009 58.4213 27.7909 58.7613 27.5209C59.6913 26.7709 60.0913 25.9209 60.0013 24.8309L59.9912 24.8209Z" fill="#806D4B"/>
<path d="M146.901 31.0009C146.131 31.5309 145.271 31.6509 144.361 31.5009C143.761 31.7109 143.141 31.8309 142.511 31.8509C141.471 31.8909 140.601 31.9909 139.761 32.1609C138.171 32.5009 136.711 32.1009 135.551 31.0209L135.241 30.7409C134.871 30.4009 134.481 30.0509 134.131 29.6509C131.811 27.0009 131.451 23.6509 133.141 20.4409C133.431 19.8909 133.791 19.3809 134.161 18.8709C135.071 17.6109 136.271 16.8109 137.721 16.4809C138.001 16.4209 138.291 16.3309 138.571 16.2609C139.011 16.0609 139.471 15.9309 139.931 15.8709C140.171 15.8009 140.421 15.7209 140.661 15.6509C141.431 15.4109 142.161 15.2909 142.871 15.2909C144.171 15.2909 145.371 15.6909 146.451 16.5009C147.161 17.0309 147.861 17.5709 148.551 18.1309C149.331 18.7709 149.821 19.6409 149.971 20.6509C149.971 20.7109 149.981 20.7609 149.991 20.8209C150.281 21.4009 150.521 22.0109 150.671 22.6809C150.901 23.7609 150.941 24.7909 150.711 25.8509C150.211 28.1309 148.741 29.7209 146.901 30.9909V31.0009ZM134.231 21.0109C132.771 23.7809 133.061 26.5709 135.061 28.8409C135.361 29.1809 135.711 29.5009 136.071 29.8309L136.391 30.1209C137.051 30.7409 137.821 31.0509 138.681 31.0509C138.951 31.0509 139.221 31.0209 139.511 30.9609C140.411 30.7709 141.351 30.6609 142.461 30.6209C142.891 30.6109 143.311 30.5309 143.721 30.4109C143.721 30.3509 143.731 30.2809 143.741 30.2209C143.861 29.0409 143.991 27.8509 144.081 26.6709C144.151 25.8009 143.971 24.9709 143.661 24.1609C143.591 23.6609 143.471 23.1709 143.271 22.7009C143.091 22.2909 142.861 21.9009 142.581 21.5409C141.901 20.3909 140.811 19.7009 139.571 19.3009C139.481 19.2709 139.391 19.2309 139.301 19.2009C139.131 19.0009 138.881 18.9109 138.611 18.9809C138.591 18.9809 138.571 18.9809 138.541 18.9909C138.331 18.9509 138.111 18.9209 137.901 18.9109C137.691 18.8809 137.481 18.8509 137.271 18.8309C137.251 18.8309 137.241 18.8209 137.221 18.8109C136.941 18.7009 136.691 18.7009 136.431 18.7709C136.251 18.7709 136.071 18.7609 135.891 18.7609C135.631 19.0009 135.381 19.2609 135.151 19.5709C134.811 20.0509 134.471 20.5209 134.221 21.0009L134.231 21.0109Z" fill="#806D4B"/>
</svg>
