<svg width="649" height="82" viewBox="0 0 649 82" fill="none" xmlns="http://www.w3.org/2000/svg">
<path d="M183.026 9.79071C183.54 11.324 183.13 12.7159 183.525 13.9812C183.852 15.0307 183.86 16.043 183.912 17.0925C184.068 20.3228 183.994 23.5829 184.478 26.7611C184.932 29.731 185.185 32.6933 185.289 35.6855C185.311 36.3554 185.557 37.0104 185.676 37.6803C186.428 41.9675 186.673 46.3218 187.165 50.6314C187.634 54.7326 188.802 58.6625 189.36 62.7191C189.554 64.1109 189.427 65.5103 189.688 66.9096C190.127 69.217 190.521 71.5616 190.618 73.8987C190.7 75.8339 191.802 77.4863 191.839 79.3992C191.846 80.0021 191.891 80.3519 190.968 80.404C188.125 80.5752 185.281 80.6199 182.431 80.5976C180.905 80.5827 180.555 80.2328 180.637 78.6921C180.86 74.3602 180.659 70.0283 180.443 65.7112C180.257 61.9971 180.079 58.2829 180.116 54.5762C180.168 50.3485 179.989 46.1208 180.086 41.8856C180.205 36.7573 180.399 31.629 180.696 26.5155C180.927 22.4962 180.875 18.4769 181.084 14.4576C181.277 10.7285 181.009 6.96975 180.875 3.22584C180.83 2.07215 181.27 1.77442 182.341 1.84885C184.493 2.00516 186.614 1.56601 188.75 1.37249C189.963 1.26084 190.819 1.77442 191.623 2.75692C193.826 5.47367 195.702 8.4435 197.965 11.0933C200.942 14.5841 203.674 18.2015 206.085 22.1017C207.023 23.6201 208.288 25.012 209.449 26.4262C211.02 28.3316 212.427 30.386 213.99 32.3212C215.292 33.9363 216.744 35.4771 217.741 37.2709C218.508 38.6404 219.594 39.742 220.406 41.0669C221.344 42.5853 222.52 44.0218 223.532 45.5105C225.303 48.123 227.373 50.5197 228.958 53.2811C229.829 54.7995 230.953 56.251 232.263 57.494C233.521 58.6849 234.213 60.2926 235.277 61.6324C235.768 62.2502 236.185 62.9349 236.744 63.4783C237.332 64.0588 237.972 64.1556 238.001 63.0391C238.039 61.3421 238.113 59.6227 237.964 57.9406C237.711 55.1717 237.16 52.4252 237.25 49.6265C237.339 46.9396 236.528 44.3717 236.126 41.7517C235.768 39.422 235.53 37.0774 235.166 34.7551C234.592 31.0856 234.518 27.364 233.722 23.7169C233.312 21.8412 233.052 19.8911 233.037 17.9261C233.022 16.4747 232.635 14.9339 232.144 13.6165C230.901 10.3192 229.658 6.97719 227.685 3.99993C227.514 3.74686 227.35 3.4789 227.127 3.2705C226.799 2.96533 226.331 2.64527 226.695 2.19868C227 1.81908 227.454 1.48414 228.072 1.60323C230.194 2.02004 232.33 1.90095 234.444 1.62556C235.411 1.49902 236.252 1.87118 237.16 1.93817C237.681 1.97538 238.195 2.0126 238.716 1.98283C240.016 1.89351 240.661 2.49641 240.651 3.79152C240.614 9.47065 240.495 15.1572 240.569 20.8364C240.629 25.5256 241.031 30.2073 241.068 34.8965C241.083 36.8764 240.927 38.9084 240.941 40.8808C240.956 43.1882 240.986 45.5105 241.016 47.8179C241.038 49.6786 240.793 51.5469 240.852 53.4077C240.912 55.1866 241.195 56.9506 241.068 58.7444C240.852 61.9375 240.971 65.1455 240.897 68.3387C240.83 71.3383 240.703 74.3453 240.808 77.3523C240.822 77.7394 240.941 78.119 241.016 78.506C241.217 79.6672 240.42 80.3668 239.297 80.6571C237.131 81.2079 236.051 79.8309 235.084 78.4539C233.96 76.8611 232.866 75.2087 231.518 73.8392C228.936 71.2117 227.209 67.9442 224.73 65.2423C223.8 64.2226 223.182 62.92 222.371 61.7812C221.366 60.367 220.19 59.0794 219.215 57.6279C217.086 54.4572 214.756 51.4203 212.657 48.2347C210.715 45.2797 208.72 42.3843 206.405 39.7048C204.142 37.0848 201.954 34.3978 199.677 31.7927C197.191 28.9494 195.129 25.7786 192.963 22.712C190.879 19.7646 188.69 16.9064 186.539 14.011C185.505 12.6266 184.798 11.0039 183.041 9.78327L183.026 9.79071Z" fill="#F7F8F1"/>
<path d="M472.774 43.6205C472.967 40.8442 473.384 38.0604 473.421 35.3064C473.459 32.3813 474.195 29.6422 475.044 26.9999C475.833 24.5362 476.637 21.9608 478.341 19.8098C479.741 18.0383 480.82 16.0212 482.666 14.5995C483.12 14.2497 483.276 13.5426 483.663 13.0737C486.261 9.91035 489.268 7.09683 492.841 5.16905C494.694 4.17167 496.942 3.75485 498.758 2.5565C500.068 1.69309 501.542 1.2465 502.963 1.22417C504.936 1.18696 506.931 1.14974 508.829 0.822243C510.831 0.472414 512.9 1.00088 514.761 0.442641C517.559 -0.398436 520.231 0.0853695 522.77 0.844573C526.685 2.01315 530.63 3.1073 534.426 4.70758C536.45 5.56354 538.49 6.30786 540.142 7.7816C541.631 9.11393 543.223 10.3346 544.154 12.2103C544.548 12.9993 545.241 13.7213 545.97 14.2497C547.622 15.463 548.434 17.3089 549.528 18.9091C550.287 20.0107 551.121 21.0677 551.835 22.2065C553.867 25.4591 555.147 28.9053 555.884 32.6939C556.837 37.6213 556.167 42.4444 555.81 47.3272C555.49 51.7037 553.845 55.6114 551.984 59.4521C551.232 61.0077 550.041 62.3475 549.185 63.8659C548.24 65.5331 547.124 67.0367 545.888 68.4955C542.911 72.0013 539.904 75.3879 535.386 77.0849C533.986 77.6134 532.639 78.3949 531.232 78.9681C528.322 80.159 525.256 80.9405 522.152 81.3275C518.073 81.8411 513.949 81.789 509.841 81.8486C508.404 81.8709 507.146 81.1191 505.717 81.0521C503.678 80.9554 501.795 80.2111 499.904 79.4444C498.751 78.9755 497.455 78.9085 496.294 78.2982C494.076 77.1222 491.739 76.1248 489.796 74.5096C486.64 71.8896 482.77 70.0288 480.954 65.95C480.463 64.8409 479.443 63.8956 478.937 62.742C477.24 58.8417 475.468 54.9787 474.329 50.8552C473.674 48.466 472.632 46.166 472.766 43.6056L472.774 43.6205ZM484.274 46.166C484.504 49.0391 484.474 52.396 486.023 55.4625C486.179 55.7752 486.261 56.125 486.343 56.4674C487.429 60.7174 488.196 65.0344 490.853 68.7858C492.945 71.7407 495.252 74.331 498.229 76.4002C500.604 78.0525 503.268 78.7522 506.015 79.37C509.305 80.1143 512.677 80.2855 516.004 80.5386C519.286 80.7842 522.464 79.5263 525.449 78.2907C528.739 76.9286 531.954 75.2837 534.21 72.2618C535.185 70.9592 536.584 69.9767 537.827 68.9049C539.301 67.6321 540.261 65.5629 540.842 63.5086C541.154 62.407 541.511 61.2608 542.018 60.2708C543.104 58.1346 544.087 56.0878 544.087 53.572C544.087 52.061 543.804 50.5203 544.318 48.9423C544.965 46.9699 545.337 44.8784 545.561 42.8092C545.791 40.6209 545.635 38.4177 545.404 36.1922C545.002 32.2845 544.69 28.3917 543.618 24.5808C543.082 22.6754 542.226 20.9188 541.303 19.2292C539.584 16.0882 537.403 13.23 535.222 10.3793C533.555 8.20587 531.463 6.67257 529 5.60076C526.759 4.63315 524.459 3.85161 522.122 3.12218C519.889 2.42997 517.552 1.90895 515.341 1.94616C511.91 2.00571 508.456 2.69792 505.085 3.44224C500.738 4.40241 497.232 6.92564 494.143 10.0592C493.094 11.1236 492.416 12.4634 491.493 13.6096C489.982 15.4927 488.792 17.5024 487.943 19.7725C486.946 22.4446 486.372 25.2209 485.688 27.9675C485.04 30.5428 484.668 33.2 484.281 35.8349C483.797 39.1322 484.303 42.437 484.266 46.166H484.274Z" fill="#F7F8F1"/>
<path d="M135.107 6.74734C135.107 10.8857 135.204 15.0241 135.077 19.1551C134.958 23.0702 135.338 26.9779 135.189 30.9004C135.092 33.6172 135.063 36.3786 135.435 39.0581C135.807 41.76 135.509 44.4991 135.539 47.2158C135.569 49.9326 135.837 52.493 135.301 55.113C134.445 59.311 134.512 62.8614 132.249 66.6648C130.879 68.9797 129.986 71.5848 127.902 73.4456C126.436 74.7556 125.193 76.7801 123.421 77.6063C122.178 78.1794 121.188 79.1247 119.96 79.6606C118.755 80.1891 117.467 80.2784 116.202 80.5761C114.936 80.8738 113.82 81.4767 112.569 81.6777C110.813 81.9531 108.252 81.8489 106.444 81.7596C103.943 81.633 101.479 81.1939 98.9855 81.0376C97.2215 80.9259 93.6562 79.2512 93.3733 79.2215C92.3536 79.1024 90.1579 77.4277 89.235 76.8396C87.456 75.7008 86.2651 74.041 84.7765 72.6491C84.3522 72.2547 83.9726 71.8304 83.727 71.3094C82.7445 69.203 81.5015 67.2082 80.9507 64.9231C79.5886 59.3035 78.8517 53.6095 78.9113 47.8113C78.9485 43.8441 78.6657 39.8694 78.6805 35.8948C78.6954 31.6671 78.6582 27.4468 78.941 23.2116C79.1271 20.4874 78.7996 17.9195 78.6508 15.2251C78.5391 13.3197 78.9559 11.4514 79.0006 9.55341C79.0453 7.6554 78.755 5.72762 78.7773 3.78496C78.7922 2.42286 79.4025 2.14002 80.5637 2.20701C82.9306 2.34098 85.305 2.47496 87.6719 2.12513C88.379 2.02093 88.699 2.35587 88.8107 3.06297C89.2722 6.04768 89.1828 9.06961 89.4359 12.0618C89.7039 15.2623 89.4582 18.448 89.5029 21.6411C89.5401 23.9038 89.3689 26.174 89.2796 28.4442C89.1754 31.1088 89.1307 33.7809 88.9149 36.4381C88.58 40.7105 87.8356 45.9579 88.9372 50.141C89.5476 52.4558 89.3913 54.9865 89.8825 57.3832C90.5152 60.4572 91.3786 63.4717 92.562 66.3969C93.4552 68.5852 94.661 70.513 96.3208 72.1802C98.7696 74.629 101.658 76.1549 105.111 76.8322C110.165 77.8221 115.167 77.7254 120.02 76.1549C122.789 75.2542 125.185 73.5349 126.92 71.0265C128.431 68.8308 130.031 66.6648 131.185 64.283C132.026 62.5488 132.703 60.6805 132.681 58.6039C132.651 55.8871 133.299 53.1853 133.15 50.4462C133.068 48.8757 132.837 47.2605 132.904 45.7346C133.016 43.3007 132.748 40.8966 132.703 38.485C132.666 36.4679 132.83 34.3987 132.063 32.3891C131.587 31.1535 131.616 29.7244 131.386 28.3921C130.812 24.998 129.748 21.723 128.959 18.381C128.393 15.9992 127.694 13.6695 126.927 11.377C125.669 7.6033 123.198 4.67069 119.618 2.76524C119.387 2.63871 119.142 2.52706 118.918 2.39309C118.702 2.26655 118.345 2.20701 118.42 1.87206C118.516 1.44036 118.896 1.58922 119.186 1.60411C123.027 1.81996 126.875 1.49991 130.716 1.58922C131.765 1.61155 132.77 1.95394 133.849 1.87951C134.713 1.81996 134.958 2.64615 135.092 3.34581C135.308 4.46973 135.412 5.60853 135.092 6.75478L135.107 6.74734Z" fill="#F7F8F1"/>
<path d="M430.668 16.0141C430.028 15.7536 429.73 15.4037 429.477 14.9869C428.167 12.8284 426.254 11.2728 424.215 9.85858C423.456 9.33011 422.823 8.68256 422.123 8.09455C420.501 6.73245 418.67 5.34057 416.638 5.05029C413.973 4.67813 411.554 3.47234 408.83 3.30859C407.125 3.20439 405.369 3.07785 403.657 2.92155C402.302 2.79501 400.62 3.65097 399.451 4.5516C397.71 5.89881 395.41 6.79944 394.487 8.95051C393.274 11.7864 391.435 14.7115 392.433 17.8749C393.207 20.3386 393.385 23.0479 395.134 25.2362C397.018 27.5956 398.834 29.7988 402.049 30.491C403.24 30.7441 404.468 31.3842 405.585 31.9946C406.195 32.3295 406.828 32.5677 407.423 32.6049C409.939 32.791 411.42 34.8304 413.504 35.7682C415.737 36.7731 417.888 37.9491 420.255 38.6711C421.908 39.1772 423.262 40.2788 424.446 41.5516C424.714 41.8419 424.944 42.1843 425.257 42.415C431.323 46.7916 433.132 53.2076 433.31 60.1372C433.385 62.9507 432.73 65.8461 431.792 68.6596C430.973 71.1084 429.619 73.1255 427.855 74.7258C425.592 76.7801 423.188 78.7004 420.203 79.8988C416.094 81.5437 411.867 82.2508 407.587 81.8042C404.267 81.4619 400.791 81.7 397.65 80.3082C395.291 79.2661 392.991 78.0752 390.594 77.0853C389.202 76.5121 387.758 75.9316 386.605 74.8374C386.098 74.3611 385.935 73.9666 385.972 73.2669C386.158 70.1259 386.091 66.9774 385.875 63.8364C385.845 63.4494 385.868 63.0475 385.897 62.6604C385.927 62.3255 386.113 62.0724 386.471 62.0277C386.828 61.9831 387.066 62.1989 387.185 62.5041C388.22 65.1018 390.185 67.037 391.845 69.1955C392.254 69.724 392.864 69.8431 393.341 70.2376C395.358 71.8974 397.099 73.9443 399.384 75.2245C402.496 76.9736 405.495 79.0354 409.172 79.5266C412.023 79.9062 414.844 79.9807 417.471 78.5144C417.657 78.4102 417.888 78.3506 418.097 78.3283C421.305 77.9785 423.054 75.7529 424.446 73.2223C425.294 71.689 426.507 70.379 427.088 68.6968C428.145 65.6749 428.733 62.7646 427.356 59.5268C426.522 57.5767 425.57 55.7159 424.52 53.9147C423.709 52.5228 422.041 51.9274 420.739 51.0118C417.59 48.7938 414.115 47.1116 410.81 45.1318C407.579 43.1965 404.133 41.7005 400.486 40.7626C398.104 40.1448 396.236 38.7157 394.412 37.2494C393.542 36.5498 393.564 35.143 392.738 34.2424C389.887 31.1088 388.919 27.1044 387.781 23.1893C387.639 22.7055 387.728 22.1398 387.766 21.6188C387.952 18.7085 387.862 15.694 389.262 13.0591C390.698 10.3573 391.822 7.38 394.487 5.48944C394.874 5.21404 395.201 4.84188 395.529 4.48461C396.831 3.06297 398.298 1.96882 400.315 1.72319C402.704 1.42547 404.974 0.554617 407.431 0.457856C412.745 0.249447 417.71 1.67854 422.749 3.04064C425.257 3.71796 427.535 4.78978 429.879 5.79461C430.333 5.98813 430.408 6.31563 430.475 6.71756C430.862 9.02494 430.802 11.3547 430.556 13.662C430.475 14.4138 430.527 15.1135 430.661 16.0066L430.668 16.0141Z" fill="#F7F8F1"/>
<path d="M3.66826 2.09478C4.82196 2.2883 6.06496 1.98313 7.25587 2.39995C7.76945 2.57858 8.18627 2.2883 8.64774 2.17665C9.51115 1.97569 10.1736 2.19898 10.1736 3.23358C10.1736 6.41926 10.7169 9.57516 10.6723 12.7683C10.6351 15.3883 10.4713 18.0008 10.3225 20.6208C10.1736 23.211 10.4788 25.8162 10.3746 28.4138C10.1959 32.9765 10.4639 37.5243 10.6053 42.0795C10.6872 44.8186 10.4639 47.5651 10.5458 50.3042C10.6648 54.316 10.2406 58.3205 10.6351 62.3398C10.9402 65.4733 10.8584 68.6441 10.8956 71.7926C10.9179 73.6236 11.2305 75.4323 11.0742 77.2857C10.9849 78.35 11.7739 78.871 12.8531 78.6478C17.9964 77.5834 29.0718 76.8093 34.0959 75.2165C36.2098 74.5466 38.4353 74.2563 40.4747 73.445C43.1915 72.3657 45.9752 71.4056 48.5059 69.902C49.3619 69.3959 50.3518 69.1205 51.1333 68.4581C51.3269 68.2943 51.7139 68.138 51.967 68.4581C52.1828 68.726 51.8777 68.9195 51.8032 69.1577C51.4013 70.49 50.322 71.413 49.7564 72.6486C48.9748 74.353 47.8137 75.8194 46.7419 77.3378C45.9157 78.5063 45.1118 79.6972 44.3303 80.8956C43.8614 81.6176 43.1468 81.4315 42.5365 81.3645C40.11 81.1189 37.6687 81.1338 35.2347 81.1263C28.3573 81.104 15.6294 81.1784 8.75195 81.1561C7.48661 81.1561 6.28082 81.2975 5.03781 81.4538C3.60128 81.6399 2.04565 81.0445 0.571907 80.6872C0.155089 80.583 0.259294 80.0099 0.25185 79.6228C0.192305 74.2265 0.452816 68.8377 0.668668 63.4488C0.787758 60.5385 0.616566 57.6208 0.802645 54.718C1.04827 51.0187 0.787758 47.312 0.869633 43.6128C0.929179 40.7695 0.988724 37.8592 0.586793 34.9861C0.326282 33.1477 0.646338 31.2422 0.467702 29.3814C0.236964 26.9922 0.333725 24.5955 0.058328 22.2062C-0.142638 20.5241 0.244407 18.7898 0.192305 17.0853C0.0657712 13.0586 0.214635 9.0467 0.423043 5.03483C0.452816 4.38727 0.303953 3.73227 0.27418 3.08472C0.244407 2.33296 0.504918 1.94591 1.38321 2.07989C2.11264 2.1841 2.87929 2.10222 3.68315 2.10222L3.66826 2.09478Z" fill="#F7F8F1"/>
<path d="M600.625 2.09478C601.779 2.2883 603.022 1.98313 604.213 2.39995C604.726 2.57858 605.143 2.2883 605.605 2.17665C606.468 1.97569 607.131 2.19898 607.131 3.23358C607.131 6.41926 607.674 9.57516 607.629 12.7683C607.592 15.3883 607.428 18.0008 607.279 20.6208C607.131 23.211 607.436 25.8162 607.332 28.4138C607.153 32.9765 607.421 37.5243 607.562 42.0795C607.644 44.8186 607.421 47.5651 607.503 50.3042C607.622 54.316 607.198 58.3205 607.592 62.3398C607.897 65.4733 607.815 68.6441 607.853 71.7926C607.875 73.6236 608.188 75.4323 608.031 77.2857C607.942 78.35 608.731 78.871 609.81 78.6478C614.953 77.5834 626.029 76.8093 631.053 75.2165C633.167 74.5466 635.392 74.2563 637.432 73.445C640.149 72.3657 642.932 71.4056 645.463 69.902C646.319 69.3959 647.309 69.1205 648.09 68.4581C648.284 68.2943 648.671 68.138 648.924 68.4581C649.14 68.726 648.835 68.9195 648.76 69.1577C648.358 70.49 647.279 71.413 646.713 72.6486C645.932 74.353 644.771 75.8194 643.699 77.3378C642.873 78.5063 642.069 79.6972 641.287 80.8956C640.818 81.6176 640.104 81.4315 639.494 81.3645C637.067 81.1189 634.626 81.1338 632.192 81.1263C625.314 81.104 612.586 81.1784 605.709 81.1561C604.444 81.1561 603.238 81.2975 601.995 81.4538C600.558 81.6399 599.003 81.0445 597.529 80.6872C597.112 80.583 597.216 80.0099 597.209 79.6228C597.149 74.2265 597.41 68.8377 597.626 63.4488C597.745 60.5385 597.574 57.6208 597.76 54.718C598.005 51.0187 597.745 47.312 597.827 43.6128C597.886 40.7695 597.946 37.8592 597.544 34.9861C597.283 33.1477 597.603 31.2422 597.425 29.3814C597.194 26.9922 597.291 24.5955 597.015 22.2062C596.814 20.5241 597.201 18.7898 597.149 17.0853C597.023 13.0586 597.172 9.0467 597.38 5.03483C597.41 4.38727 597.261 3.73227 597.231 3.08472C597.201 2.33296 597.462 1.94591 598.34 2.07989C599.07 2.1841 599.836 2.10222 600.64 2.10222L600.625 2.09478Z" fill="#F7F8F1"/>
<path d="M317.785 6.51614C316.892 8.20574 316.065 9.67204 315.321 11.1756C314.324 13.2075 313.17 15.1502 312.135 17.1524C310.922 19.5045 309.91 21.9533 308.89 24.3946C308.116 26.248 307.446 28.146 306.575 29.9696C305.087 33.0734 303.687 36.2218 302.69 39.5266C301.678 42.8835 300.539 46.2106 299.571 49.5823C298.991 51.6068 298.306 53.6165 298.06 55.7378C297.978 56.4449 297.711 57.1371 297.48 57.8219C296.624 60.3302 296.006 62.8981 295.946 65.5405C295.909 67.1556 295.738 68.7931 296.147 70.4083C296.505 71.8076 296.795 73.2293 297.13 74.636C297.376 75.6781 297.964 76.5712 298.425 77.524C298.656 78.0003 298.946 78.4544 299.132 78.9456C299.393 79.6304 299.043 80.144 298.313 80.0695C295.857 79.8239 293.408 80.2779 290.974 80.1886C289.166 80.1216 287.424 80.3598 285.653 80.5608C284.685 80.6724 283.717 80.6799 282.765 80.5236C281.953 80.3896 281.894 80.1812 281.998 79.3475C282.221 77.6133 283.189 76.1172 283.516 74.4202C283.844 72.7082 284.648 71.1303 284.998 69.4332C285.816 65.466 287.342 61.7147 288.615 57.8889C289.985 53.7803 291.287 49.6567 293.111 45.697C294.532 42.6081 295.805 39.4224 297.13 36.2739C298.82 32.2323 300.494 28.1758 302.75 24.3872C303.412 23.2707 303.911 22.0649 304.372 20.8442C305.407 18.0903 306.828 15.5224 308.22 12.9396C309.634 10.3196 311.138 7.74426 312.396 5.04983C312.813 4.14921 313.386 3.31558 313.684 2.34052C313.87 1.73763 314.331 1.37291 315.113 1.36547C316.996 1.35058 318.879 1.47711 320.755 1.52922C321.462 1.5441 321.826 1.93859 322.087 2.45961C323.084 4.42461 324.015 6.41938 325.034 8.37693C326.143 10.5057 327.342 12.5823 328.443 14.7036C329.575 16.8845 330.714 19.0728 331.555 21.3876C332.053 22.7497 332.708 24.0374 333.438 25.2878C334.651 27.3719 335.745 29.5304 336.638 31.7485C337.487 33.8549 338.477 35.8869 339.34 37.9784C341.015 42.0275 342.734 46.0542 344.461 50.081C345.109 51.592 345.533 53.1774 346.054 54.733C346.858 57.152 347.639 59.5785 348.503 61.9826C349.455 64.6547 350.17 67.4012 350.951 70.1255C351.711 72.7529 352.321 75.4399 353.423 77.9705C353.542 78.2459 353.646 78.5065 353.586 78.8042C353.482 79.3252 354.152 79.7718 353.743 80.3151C353.281 80.918 352.559 80.5757 351.979 80.7394C351.666 80.8287 351.309 80.7394 350.974 80.7096C347.044 80.2705 343.092 80.2854 339.154 80.0844C338.618 80.0546 338.105 80.1514 337.576 80.2109C336.698 80.3077 336.326 79.7569 336.69 78.9382C337.122 77.978 337.628 77.0402 338.105 76.0949C338.149 76.0056 338.231 75.9386 338.253 75.8492C338.871 73.527 339.683 71.2494 339.794 68.8229C339.876 67.0961 339.831 65.3767 339.668 63.6499C339.556 62.4441 339.258 61.2681 338.938 60.1293C338.365 58.0973 337.829 56.0579 337.331 54.011C336.646 51.2124 335.82 48.4435 334.949 45.6895C334.316 43.6799 333.579 41.6926 333.021 39.6457C332.314 37.0703 331.235 34.6067 330.111 32.1653C329.277 30.3492 328.466 28.5033 327.714 26.6425C326.218 22.9507 324.789 19.2216 322.757 15.7531C321.276 13.2224 320.047 10.5429 318.7 7.93034C318.484 7.51352 318.202 7.12648 317.807 6.50125L317.785 6.51614Z" fill="#F7F8F1"/>
</svg>
