<svg width="411" height="41" viewBox="0 0 411 41" fill="none" xmlns="http://www.w3.org/2000/svg">
<path d="M39.6894 9.149C38.9075 8.52528 38.1721 7.84573 37.4366 7.16616C36.8502 6.62623 36.2637 6.0863 35.6586 5.56499C32.2049 2.64192 28.7046 1.15246 24.9531 1.02213C22.5048 0.929036 20.3543 0.686996 18.3715 0.277394C14.5361 -0.523191 11.0545 0.417043 8.28968 2.99567L7.54495 3.68454C6.65127 4.49443 5.72035 5.34157 4.89184 6.2911C-0.665724 12.6306 -1.53148 20.6737 2.51801 28.3631C3.2255 29.7036 4.11918 30.9603 4.96631 32.1332C7.14465 35.1401 10.0119 37.0671 13.4935 37.8584C15.7929 38.3797 18.1201 39.1058 20.5405 39.8691C22.3744 40.437 24.1432 40.7256 25.8374 40.7256C28.956 40.7256 31.8325 39.7574 34.4205 37.8304C36.124 36.5644 37.809 35.2611 39.4474 33.9113C41.3092 32.3753 42.4915 30.29 42.8452 27.879C43.0966 26.1568 43.3107 24.4253 43.4969 22.8893L43.7389 20.9623L43.7203 19.6311C43.7203 19.0446 43.7017 18.5978 43.7389 18.1509C44.0368 14.5855 42.6777 11.5694 39.6894 9.17694V9.149ZM40.8252 17.8716C40.7786 18.4023 40.7879 18.9422 40.7972 19.6404V20.7482L40.5924 22.4983C40.4063 24.025 40.1921 25.7286 39.9408 27.4228C39.6894 29.1357 38.8982 30.5414 37.5763 31.6305C35.9751 32.9524 34.3274 34.2185 32.661 35.4566C29.4587 37.8491 25.6699 38.3797 21.2294 36.9926C18.93 36.2758 16.5469 35.5311 14.1265 34.9818C11.3245 34.3488 9.09958 32.8407 7.32153 30.3924C6.50232 29.266 5.72035 28.1582 5.09664 26.976C1.5964 20.3293 2.29459 13.6639 7.07949 8.20878C7.8056 7.38027 8.62481 6.63553 9.49987 5.83495L10.2725 5.12746C11.8551 3.64731 13.6983 2.91188 15.7649 2.91188C16.4073 2.91188 17.0775 2.98636 17.7571 3.126C19.8982 3.57284 22.2162 3.8428 24.832 3.93589C27.8948 4.03829 30.8178 5.30433 33.7409 7.78987C34.3181 8.27395 34.8766 8.79526 35.4259 9.30726C36.2171 10.0334 36.9991 10.7688 37.8369 11.4297C40.0804 13.2171 41.0207 15.2651 40.7972 17.8624L40.8252 17.8716Z" fill="#C6B285"/>
<path d="M97.2515 3.0706C95.3989 1.79525 93.3509 1.51596 91.1726 1.86971C89.7297 1.36702 88.2495 1.07844 86.7414 1.03189C84.2466 0.938804 82.152 0.706072 80.1598 0.287161C76.3431 -0.513424 72.8522 0.426797 70.078 3.00543L69.3333 3.68499C68.4396 4.50419 67.5087 5.34202 66.6709 6.29155C61.1133 12.6311 60.2476 20.6742 64.2971 28.3635C64.9952 29.6854 65.8517 30.8956 66.7453 32.1337C68.933 35.1406 71.8002 37.0675 75.2725 37.8588C75.859 37.9891 76.4455 38.1381 77.032 38.2963C78.2142 38.8549 79.443 39.1993 80.6811 39.3576C81.2304 39.5251 81.7703 39.6927 82.3196 39.8696C84.1535 40.4375 85.9222 40.726 87.6165 40.726C90.735 40.726 93.6116 39.7579 96.1995 37.8309C97.9031 36.5648 99.588 35.2616 101.226 33.9118C103.098 32.3757 104.271 30.2905 104.624 27.8794C104.643 27.7491 104.662 27.6095 104.68 27.4791C105.388 26.0828 105.956 24.6119 106.3 23.0015C106.859 20.4135 106.942 17.9559 106.393 15.4052C105.201 9.93143 101.683 6.1333 97.2515 3.0799V3.0706ZM89.5248 19.436C89.3573 20.6369 89.0687 21.8192 88.5753 22.9456C88.1471 23.9324 87.5792 24.8633 86.9276 25.7197C83.6229 30.0298 79.8806 31.4728 74.6116 32.1896C72.9266 32.413 70.8879 32.8226 69.5753 31.5193C68.5234 30.4767 67.5739 28.2983 66.885 27.0044C63.3848 20.3576 64.0829 13.6923 68.8678 8.23715C69.5939 7.40864 70.4225 6.65461 71.2975 5.86334L72.0609 5.16515C73.6434 3.685 75.4867 2.94957 77.5533 2.94957C78.1956 2.94957 78.8566 3.02404 79.5454 3.16368C82.3009 3.74085 85.3823 3.5919 87.8771 5.05343C90.9305 6.8501 90.2789 10.2666 90.5209 13.441C90.6792 15.5262 90.251 17.5184 89.5156 19.4547L89.5248 19.436Z" fill="#C6B285"/>
<path d="M163.449 9.94939C162.686 9.3443 161.978 8.68335 161.261 8.03171C160.693 7.50109 160.116 6.97047 159.52 6.46777C156.151 3.60987 152.743 2.15765 149.085 2.03663C146.711 1.95285 144.616 1.72012 142.689 1.31052C138.957 0.519244 135.549 1.45015 132.85 3.96361L132.133 4.61525C131.258 5.40653 130.346 6.23504 129.536 7.16596C124.118 13.3472 123.271 21.1948 127.218 28.6794C127.897 29.9827 128.735 31.1556 129.601 32.3565C131.733 35.2888 134.535 37.1693 137.923 37.9419C140.195 38.4539 142.475 39.1707 144.775 39.8876C146.571 40.4461 148.294 40.7254 149.941 40.7254C152.985 40.7254 155.787 39.7852 158.31 37.8954C159.967 36.6573 161.606 35.4006 163.198 34.0787C165.022 32.5799 166.167 30.5412 166.521 28.186C166.772 26.4731 166.977 24.7602 167.173 23.2428L167.396 21.4462V20.1708C167.377 19.5937 167.368 19.1468 167.396 18.7093C167.685 15.2277 166.353 12.286 163.44 9.94939H163.449ZM145.566 37.0669C143.304 36.3594 140.958 35.624 138.575 35.084C135.866 34.4696 133.706 33.0081 131.975 30.6343C131.174 29.5265 130.411 28.4466 129.815 27.3202C126.417 20.869 127.097 14.3992 131.742 9.10226C132.449 8.29236 133.25 7.56626 134.106 6.7936L134.851 6.12334C136.387 4.68973 138.165 3.97293 140.167 3.97293C140.79 3.97293 141.433 4.0381 142.103 4.17773C143.043 4.37323 144.021 4.53148 145.035 4.6525C145.091 12.3884 145.361 20.1243 145.873 27.8415C145.994 29.7034 145.659 34.5162 146.413 37.2903C146.134 37.2158 145.855 37.16 145.566 37.0669Z" fill="#C6B285"/>
<path d="M222.749 11.7597C221.334 10.6333 220.059 9.32067 218.681 8.14772C215.851 5.74596 212.667 4.07963 208.878 3.9493C206.57 3.86552 204.317 3.65141 202.045 3.17664C198.759 2.48777 195.762 3.21387 193.257 5.54116C192.14 6.58378 190.967 7.57985 189.962 8.72488C184.721 14.7013 184.079 22.1207 187.784 29.1491C188.445 30.4058 189.282 31.5881 190.12 32.7425C192.038 35.3862 194.533 37.1643 197.791 37.8997C200.211 38.4489 202.576 39.1937 204.95 39.9384C209.362 41.3161 213.672 40.9903 217.517 38.1231C219.202 36.8664 220.868 35.5817 222.488 34.2505C224.099 32.9286 225.067 31.1878 225.365 29.1305C225.718 26.6822 225.998 24.2339 226.249 22.3255C226.249 21.0036 226.193 20.2403 226.249 19.4862C226.519 16.2653 225.244 13.7797 222.74 11.7876L222.749 11.7597Z" fill="#C6B285"/>
<path d="M282.96 9.95001C282.206 9.34491 281.498 8.69328 280.791 8.03233C280.213 7.50171 279.636 6.97109 279.04 6.45908C275.671 3.60118 272.263 2.14895 268.605 2.02793C266.231 1.94415 264.137 1.71142 262.21 1.30182C258.495 0.51985 255.079 1.44146 252.37 3.95493L251.634 4.62518C250.769 5.41646 249.866 6.23566 249.056 7.15727C243.638 13.3385 242.791 21.1861 246.738 28.68C247.417 29.9647 248.255 31.1562 249.121 32.3571C251.253 35.2988 254.055 37.1699 257.443 37.9426C257.518 37.9612 257.592 37.9798 257.667 37.9984C259.435 38.8828 261.679 39.6927 263.429 39.6182C263.718 39.7113 264.006 39.7951 264.295 39.8882C266.082 40.4467 267.814 40.726 269.461 40.726C272.505 40.726 275.307 39.7858 277.83 37.896C279.487 36.6579 281.126 35.4012 282.718 34.0793C284.542 32.5805 285.687 30.5418 286.041 28.1866C286.292 26.4737 286.497 24.7608 286.693 23.2434L286.916 21.4468V20.1528C286.897 19.585 286.888 19.1474 286.916 18.7099C287.214 15.2376 285.883 12.2866 282.96 9.95001ZM284.002 18.4679C283.956 18.9892 283.965 19.5105 283.974 20.1994V21.2699L283.779 22.8804C283.593 24.3792 283.388 26.0734 283.136 27.7584C282.894 29.4061 282.131 30.7745 280.856 31.8265C279.292 33.1111 277.691 34.3399 276.071 35.5501C273.204 37.6912 269.973 38.2777 266.166 37.3561C266.948 34.5913 266.603 29.7133 266.734 27.8421C267.246 20.2087 267.516 12.5659 267.572 4.91376C267.879 4.93238 268.177 4.951 268.493 4.96031C271.463 5.06271 274.293 6.2822 277.141 8.70257C277.7 9.18665 278.249 9.68935 278.789 10.192C279.552 10.8995 280.316 11.607 281.126 12.2494C283.295 13.9809 284.207 15.9637 283.993 18.4772L284.002 18.4679Z" fill="#C6B285"/>
<path d="M344.646 9.149C343.865 8.53459 343.138 7.85503 342.403 7.17546C341.817 6.62623 341.23 6.0863 340.616 5.56499C337.162 2.63261 333.652 1.15246 329.91 1.02213C327.415 0.929036 325.33 0.696305 323.329 0.277394C319.521 -0.523191 316.021 0.417043 313.247 2.99567L312.502 3.68454C311.608 4.49443 310.677 5.34157 309.849 6.2911C304.291 12.6306 303.426 20.6737 307.475 28.3631C308.183 29.7129 309.076 30.9603 309.923 32.1332C312.102 35.1401 314.969 37.0671 318.451 37.8584C320.778 38.389 323.012 39.0872 325.498 39.8691C327.331 40.437 329.1 40.7256 330.794 40.7256C333.913 40.7256 336.79 39.7574 339.378 37.8304C341.081 36.5644 342.766 35.2611 344.404 33.9113C346.276 32.3753 347.449 30.29 347.802 27.879C348.054 26.1754 348.258 24.4718 348.445 22.9358L348.696 20.953L348.677 19.6218C348.677 19.0353 348.659 18.5885 348.696 18.1416C348.994 14.5855 347.635 11.5694 344.637 9.16762L344.646 9.149ZM345.792 17.8716C345.745 18.4023 345.754 18.9422 345.764 19.6497V20.7575L345.549 22.5635C345.363 24.0715 345.158 25.7565 344.907 27.4321C344.395 30.8858 341.919 33.0455 338.419 33.0362C333.96 33.0269 328.812 29.0333 326.27 25.7006C325.609 24.8442 325.051 23.9133 324.622 22.9265C324.138 21.8001 323.85 20.6272 323.673 19.417C322.938 17.4807 322.5 15.4978 322.668 13.4033C322.798 11.6904 322.975 9.98682 323.142 8.28325C323.226 7.47336 323.012 5.72324 323.422 4.99713C324.511 3.07014 328.16 3.88004 329.817 3.93589C332.88 4.03829 335.793 5.30433 338.735 7.78987C339.312 8.28325 339.871 8.79526 340.429 9.31657C341.211 10.0427 342.003 10.7688 342.841 11.4297C345.084 13.2171 346.024 15.2651 345.801 17.8624L345.792 17.8716Z" fill="#C6B285"/>
<path d="M406.426 9.149C405.644 8.52528 404.908 7.84573 404.173 7.16616C403.586 6.62623 403 6.0863 402.395 5.56499C398.941 2.64192 395.441 1.15246 391.689 1.02213C389.241 0.929036 387.09 0.686996 385.108 0.277394C381.272 -0.523191 377.791 0.417043 375.026 2.99567L374.281 3.68454C373.387 4.49443 372.456 5.34157 371.628 6.2911C366.07 12.6306 365.205 20.6737 369.254 28.3631C369.962 29.7036 370.855 30.9603 371.702 32.1332C373.881 35.1401 376.748 37.0671 380.23 37.8584C382.529 38.3797 384.856 39.1058 387.277 39.8691C389.111 40.437 390.879 40.7256 392.574 40.7256C395.692 40.7256 398.569 39.7574 401.157 37.8304C402.86 36.5644 404.545 35.2611 406.183 33.9113C408.045 32.3753 409.228 30.29 409.581 27.879C409.833 26.1568 410.047 24.4253 410.233 22.8893L410.475 20.9623L410.456 19.6311C410.456 19.0446 410.438 18.5978 410.475 18.1509C410.773 14.5855 409.414 11.5694 406.426 9.17694V9.149ZM407.561 17.8716C407.515 18.4023 407.524 18.9422 407.533 19.6404V20.7482L407.329 22.4983C407.142 24.025 406.928 25.7286 406.677 27.4228C406.426 29.1357 405.634 30.5414 404.312 31.6305C402.711 32.9524 401.063 34.2185 399.397 35.4566C396.195 37.8491 392.406 38.3797 387.965 36.9926C385.666 36.2758 383.283 35.5311 380.863 34.9818C378.061 34.3488 375.836 32.8407 374.058 30.3924C373.238 29.266 372.456 28.1582 371.833 26.976C368.332 20.3293 369.031 13.6639 373.816 8.20878C374.542 7.38027 375.361 6.63553 376.236 5.83495L377.009 5.12746C378.591 3.64731 380.434 2.91188 382.501 2.91188C383.143 2.91188 383.814 2.98636 384.493 3.126C386.634 3.57284 388.952 3.8428 391.568 3.93589C394.631 4.03829 397.554 5.30433 400.477 7.78987C401.054 8.27395 401.613 8.79526 402.162 9.30726C402.953 10.0334 403.735 10.7688 404.573 11.4297C406.817 13.2171 407.757 15.2651 407.533 17.8624L407.561 17.8716Z" fill="#C6B285"/>
</svg>
