<svg width="122" height="36" viewBox="0 0 122 36" fill="none" xmlns="http://www.w3.org/2000/svg">
<path d="M80.5178 18.342C80.2878 20.142 80.0278 22.452 79.6878 24.752C79.3978 26.682 78.4978 28.322 76.9778 29.572C75.4478 30.832 73.8878 32.042 72.2978 33.222C68.6778 35.922 64.6178 36.232 60.4678 34.932C58.2278 34.232 56.0078 33.532 53.7278 33.012C50.6678 32.322 48.3078 30.642 46.5078 28.162C45.7178 27.072 44.9378 25.962 44.3078 24.782C40.8178 18.162 41.4278 11.182 46.3578 5.552C47.3078 4.472 48.4078 3.532 49.4678 2.552C51.8278 0.362003 54.6478 -0.317998 57.7378 0.332002C59.8678 0.782002 61.9978 0.982005 64.1678 1.06201C67.7378 1.18201 70.7378 2.762 73.3978 5.022C74.6978 6.132 75.8978 7.36201 77.2278 8.42201C79.5778 10.302 80.7878 12.642 80.5278 15.672C80.4678 16.382 80.5278 17.102 80.5278 18.352" fill="#806D4B"/>
<path d="M120.688 12.882C119.568 7.73202 116.248 4.15202 112.078 1.27202C109.878 -0.247985 107.388 -0.277987 104.728 0.512013C104.818 1.44201 104.908 2.22201 104.978 3.00201C105.238 5.67201 105.538 8.34202 105.748 11.022C105.898 12.992 105.488 14.862 104.798 16.682C104.638 17.812 104.368 18.922 103.908 19.982C103.508 20.912 102.968 21.782 102.358 22.592C100.828 25.182 98.3679 26.742 95.5579 27.652C95.3579 27.732 95.1579 27.802 94.9579 27.872C94.5679 28.332 94.0079 28.522 93.3979 28.362C93.3479 28.352 93.2979 28.342 93.2479 28.332C92.7679 28.422 92.2779 28.492 91.7979 28.522C91.3279 28.592 90.8479 28.652 90.3779 28.702C90.3379 28.712 90.3079 28.732 90.2679 28.742C89.6379 28.982 89.0779 28.982 88.4779 28.832C87.9579 28.852 87.4379 28.862 86.9179 28.872C86.8979 28.942 86.8779 29.002 86.8679 29.072C86.8179 29.322 86.7879 29.652 86.7979 29.992C88.1879 31.082 89.5879 32.162 91.0179 33.212C94.5779 35.852 98.5679 36.022 102.618 34.862C104.948 34.192 107.258 33.442 109.628 32.902C112.588 32.222 114.888 30.582 116.638 28.182C118.438 25.712 119.958 23.142 120.618 20.042C121.138 17.602 121.228 15.292 120.708 12.892" fill="#806D4B"/>
<path d="M0.367905 12.882C1.48791 7.73202 4.80791 4.15202 8.97791 1.27202C11.1779 -0.247985 13.6679 -0.277987 16.3279 0.512013C16.2379 1.44201 16.1479 2.22201 16.0779 3.00201C15.8179 5.67201 15.5179 8.34202 15.3079 11.022C15.1579 12.992 15.5679 14.862 16.2579 16.682C16.4179 17.812 16.6879 18.922 17.1479 19.982C17.5479 20.912 18.0879 21.782 18.6979 22.592C20.2279 25.182 22.6879 26.742 25.4979 27.652C25.6979 27.732 25.8979 27.802 26.0979 27.872C26.4879 28.332 27.0479 28.522 27.6579 28.362C27.7079 28.352 27.7579 28.342 27.8079 28.332C28.2879 28.422 28.7779 28.492 29.2579 28.522C29.7279 28.592 30.2079 28.652 30.6779 28.702C30.7179 28.712 30.7479 28.732 30.7879 28.742C31.4179 28.982 31.9779 28.982 32.5779 28.832C33.0979 28.852 33.6179 28.862 34.1379 28.872C34.1579 28.942 34.1779 29.002 34.1879 29.072C34.2379 29.322 34.2679 29.652 34.2579 29.992C32.8679 31.082 31.4679 32.162 30.0379 33.212C26.4779 35.852 22.4879 36.022 18.4379 34.862C16.1079 34.192 13.7979 33.442 11.4279 32.902C8.4679 32.222 6.16791 30.582 4.41791 28.182C2.61791 25.712 1.09791 23.142 0.437913 20.042C-0.0820872 17.602 -0.172099 15.292 0.347901 12.892" fill="#806D4B"/>
</svg>
