<svg width="160" height="78" viewBox="0 0 160 78" fill="none" xmlns="http://www.w3.org/2000/svg">
<path d="M154.581 21.1216C154.651 21.1216 154.731 21.1216 154.801 21.1216C156.181 21.2716 158.111 20.4216 158.831 21.4716C159.831 22.9216 159.961 25.0216 159.751 26.8516C158.931 33.9116 156.301 40.2816 151.951 45.9116C148.651 50.1816 145.161 54.3116 140.931 57.6716C136.311 61.3316 131.631 64.8916 126.011 67.0916C122.441 68.4816 118.881 69.9416 115.281 71.2316C110.781 72.8416 106.171 74.2616 101.331 74.6416C99.0513 74.8216 96.8713 75.6116 94.6013 75.9816C90.9213 76.5816 87.2113 76.3616 83.5413 76.8216C77.1513 77.6316 70.8313 76.6116 64.5413 75.8716C57.7313 75.0616 50.9213 73.8616 44.4413 71.4416C40.3013 69.8916 36.2213 68.1916 32.2213 66.2516C25.5913 63.0416 19.8513 58.7116 14.4613 53.8516C9.63131 49.5016 5.92131 44.2016 3.30131 38.2716C1.36131 33.8816 -0.0286991 29.2516 0.0413009 24.3316C0.0413009 24.1116 -0.00867717 23.8816 0.00132283 23.6616C0.151323 21.2316 0.401298 20.9816 2.8513 20.9516C4.5613 20.9316 6.26132 20.9516 7.97132 20.9116C9.40132 20.8816 9.47132 20.8116 9.40132 19.3516C9.36132 18.5416 9.2213 17.7316 9.0713 16.9416C8.7313 15.1916 8.62132 13.4216 8.90132 11.6616C9.15132 10.1416 9.57131 9.79158 10.9913 10.0516C15.1913 10.8316 19.4213 10.2416 23.6313 10.4416C29.0813 10.6916 34.5413 10.2816 40.0113 10.5216C43.4613 10.6816 46.9613 10.4916 50.4413 10.3916C53.1813 10.3116 55.9013 10.8116 58.6413 10.4616C59.9513 10.2916 60.7913 9.88158 61.6313 8.70158C64.3313 4.93158 68.0813 2.54158 72.5013 1.07158C76.1813 -0.148423 79.9013 -0.148423 83.6813 0.201577C86.2513 0.441577 88.4813 1.71158 90.7513 2.73158C94.0113 4.19158 96.5813 6.67158 98.8613 9.39158C99.2613 9.87158 99.6313 9.97158 100.161 9.98158C108.821 10.1516 117.461 10.4816 126.131 10.3316C132.121 10.2216 138.111 10.0916 144.101 10.0616C145.941 10.0616 147.781 10.3716 149.631 10.4316C150.841 10.4716 151.231 11.0416 151.021 12.1316C150.521 14.6916 150.691 17.2916 150.461 19.8716C150.391 20.6716 150.451 21.1516 151.471 21.0416C152.491 20.9416 153.541 21.0216 154.571 21.0216C154.571 21.0516 154.571 21.0816 154.571 21.1216H154.581ZM70.9013 24.0416C70.9713 25.0416 71.0413 25.9116 71.1613 26.7916C71.5913 29.8116 73.3613 32.2716 74.3213 35.0516C75.3413 37.9916 77.8513 39.5116 80.2213 41.1416C80.5613 41.3716 81.0613 41.4016 81.4913 41.4816C84.4413 42.0616 87.0813 40.9316 89.5713 39.6716C93.5413 37.6616 96.1813 34.4216 97.8113 30.2216C98.5213 28.4016 98.4213 26.6216 98.5613 24.7916C98.9013 20.4016 98.2113 16.3016 95.6913 12.5516C93.8613 9.82158 91.4313 7.83158 88.6313 6.28158C87.6413 5.73158 86.4813 5.42158 85.2313 5.45158C82.4713 5.51158 80.2813 6.70158 78.3013 8.46158C77.6413 9.05158 76.8713 9.53158 76.2013 10.0816C74.4513 11.5216 72.7613 13.0516 72.1413 15.3916C71.3713 18.2716 71.0613 21.2016 70.9013 24.0316V24.0416ZM130.051 44.7616C127.661 43.7416 125.451 42.7416 123.211 41.8616C116.341 39.1616 109.501 36.3916 102.551 33.8716C101.431 33.4716 100.941 33.6616 100.421 34.5816C99.6713 35.9316 98.9713 37.3016 97.6913 38.2816C96.4013 39.2616 96.4313 39.2916 97.1713 40.8116C97.3013 41.0816 97.4413 41.3416 97.5813 41.6016C100.211 46.4716 103.761 50.7816 106.131 55.8116C106.561 56.7316 107.281 57.0116 108.331 56.6916C111.951 55.6116 115.461 54.3116 118.701 52.3416C119.271 51.9916 119.821 51.6216 120.421 51.3516C123.961 49.7616 126.881 47.2916 130.051 44.7716V44.7616ZM57.9913 33.4716C48.8013 37.8316 39.0913 40.6916 29.8813 44.7916C30.0113 45.2716 30.3113 45.4816 30.6113 45.7116C34.1213 48.3116 37.9313 50.4416 41.7213 52.6016C44.3513 54.1016 47.1313 55.3116 49.9313 56.4716C50.9613 56.9016 51.6113 56.7116 52.3113 55.7516C55.8313 50.9016 58.8413 45.7316 62.2313 40.8016C62.8513 39.8916 62.5913 39.4516 61.9613 38.7516C60.5313 37.1716 59.0213 35.6316 58.0013 33.4616L57.9913 33.4716ZM58.4513 14.4516C53.3113 14.2516 48.4513 14.6816 43.5913 14.6216C39.4613 14.5716 35.3413 14.6216 31.2213 14.8016C27.4113 14.9616 23.5813 14.3316 19.7713 15.0616C18.7813 15.2516 17.7113 15.0416 16.6813 14.9816C12.4313 14.7516 12.5213 14.2816 13.1513 19.1616C13.1513 19.2316 13.2013 19.3016 13.2213 19.3716C13.6913 21.0616 13.6913 21.0916 15.4013 21.0916C22.1413 21.1116 28.8713 21.1116 35.6113 21.1116C40.0513 21.1116 44.5013 21.0416 48.9413 21.1516C51.0813 21.2116 53.2013 21.4416 55.3413 21.1716C55.9513 21.0916 56.4413 21.0916 56.6613 20.3116C57.1813 18.4016 57.8113 16.5216 58.4613 14.4416L58.4513 14.4516ZM101.611 14.2116C101.561 15.6216 102.661 16.6216 102.941 17.9116C103.561 20.7516 103.581 20.7516 106.371 20.9116C106.521 20.9116 106.671 20.9216 106.811 20.9216C111.981 20.9216 117.151 20.9916 122.331 20.8316C129.641 20.6016 136.971 20.7316 144.281 20.7016C145.681 20.7016 145.881 20.5216 146.031 19.0516C146.141 18.0216 146.121 16.9816 146.221 15.9516C146.371 14.3516 146.311 14.1616 144.721 14.1416C143.021 14.1116 141.321 14.2416 139.631 14.3416C130.551 14.8816 121.471 14.0616 112.401 14.2616C109.601 14.3216 106.841 14.1016 104.061 14.0116C103.271 13.9816 102.451 13.8316 101.621 14.2316L101.611 14.2116ZM103.321 58.7316C102.701 56.7016 101.371 55.3516 100.571 53.7116C98.7313 49.9716 96.1013 46.7716 93.6213 43.4816C93.3213 43.0816 92.9913 42.7916 92.5313 43.1116C89.8913 44.9416 86.8913 45.5516 83.7613 45.7416C82.6713 45.8116 82.5313 46.5016 82.5313 47.4316C82.5513 51.5516 82.5013 55.6716 82.5113 59.7916C82.5113 61.6016 82.7213 61.7916 84.6013 61.6716C86.2213 61.5616 87.8313 61.3016 89.4513 61.2216C94.1113 60.9816 98.6613 60.1616 103.321 58.7316ZM142.741 49.6816C140.221 49.1116 137.801 48.0916 135.441 46.9516C134.961 46.7216 134.551 46.8816 134.271 47.2716C132.371 49.8816 129.441 51.1116 126.851 52.8016C123.451 55.0216 119.851 56.8916 116.141 58.5616C114.391 59.3516 112.541 59.9016 110.821 60.7516C110.341 60.9916 109.741 61.2716 110.211 61.8716C111.101 62.9816 111.501 64.3616 112.301 65.5116C113.761 67.5916 113.901 67.5916 116.271 66.8116C121.921 64.9516 127.061 62.0316 132.161 59.0616C135.791 56.9416 138.901 54.0916 142.021 51.3016C142.391 50.9716 142.671 50.4916 142.731 49.6816H142.741ZM49.2313 68.1416C51.3213 68.7016 53.0813 69.2616 54.8813 69.6416C60.6813 70.8716 66.5513 71.5916 72.4313 72.3016C73.9713 72.4916 75.5213 72.5816 77.0713 72.6316C77.8813 72.6616 78.4813 72.3816 78.4213 71.3416C78.3513 70.0916 78.3713 68.8316 78.4213 67.5816C78.4613 66.4416 77.9813 65.9916 76.8513 66.0516C72.3713 66.2916 68.0413 65.2816 63.6613 64.5616C60.5113 64.0416 57.4413 63.2216 54.3713 62.3916C53.4513 62.1416 52.9213 62.3016 52.3213 63.0816C51.1313 64.6116 50.3813 66.3716 49.2313 68.1516V68.1416ZM21.4613 43.3216C20.8013 42.4416 20.1713 41.5516 19.4813 40.7116C16.6313 37.2716 14.4213 33.4416 12.4813 29.4316C11.8513 28.1316 11.8713 26.3216 10.5113 25.6316C9.1213 24.9316 7.45131 25.5016 5.89131 25.5516C5.82131 25.5516 5.74131 25.5616 5.67131 25.5516C4.63131 25.4816 4.4613 26.0316 4.5413 26.9416C4.7713 29.5416 5.46131 32.0316 6.33131 34.4616C7.77131 38.5116 9.51132 42.4116 12.3413 45.7416C13.0113 46.5316 13.6313 46.6916 14.4413 46.3016C16.6813 45.2216 19.1513 44.6916 21.4713 43.3016L21.4613 43.3216ZM155.311 26.5616C155.271 25.3216 154.951 24.9716 153.541 24.9916C152.071 25.0116 150.231 24.2216 149.231 25.0816C148.191 25.9816 148.011 27.8316 147.371 29.2416C145.831 32.6716 144.361 36.1416 141.611 38.8716C140.581 39.9016 139.911 41.2616 138.711 42.2016C138.191 42.6116 138.001 43.3716 138.951 43.7616C140.931 44.5716 142.921 45.3816 144.891 46.2216C145.591 46.5216 146.061 46.4316 146.631 45.8316C150.431 41.9116 152.781 37.1816 154.311 32.0216C154.831 30.2616 154.981 28.4016 155.301 26.5616H155.311Z" fill="#806D4B"/>
</svg>
