<svg width="131" height="179" viewBox="0 0 131 179" fill="none" xmlns="http://www.w3.org/2000/svg">
<path d="M122.975 130.365C110.539 148.095 89.2596 159.804 65.0855 159.804C40.9114 159.804 19.6463 148.11 7.21014 130.365C5.47926 127.906 1.6103 129.783 2.54119 132.634C11.0792 159.019 35.8642 178.102 65.0855 178.102C94.3213 178.102 119.106 159.019 127.644 132.634C128.575 129.768 124.706 127.892 122.975 130.35V130.365Z" fill="#C6B285"/>
<path d="M58.8023 31.3696C59.6459 32.5041 59.995 33.0277 59.995 33.5077C59.995 34.1913 59.4859 36.1695 59.1368 37.624C58.3513 40.824 57.5078 44.1548 57.8132 47.0493V47.8493C57.8132 50.1474 58.5404 52.2419 59.7622 53.7546C60.984 55.3255 62.7004 56.3 64.6058 56.3C68.3584 56.3 71.3984 52.5183 71.3984 47.8493C71.3984 47.3257 71.8347 43.0348 72.1547 42.1767C73.2165 39.4131 74.5402 35.995 73.9147 32.2714C73.3184 28.6933 70.9912 26.1769 68.9258 23.9806C67.6021 22.5697 66.1185 20.9843 66.1185 19.9807L65.7694 2.25011C65.7403 -0.411657 61.944 -0.862551 61.275 1.71195L56.8387 18.8607C56.3151 20.8098 55.3405 25.7115 57.2896 29.1296C57.7841 29.9587 58.3223 30.7296 58.8023 31.3696Z" fill="#C6B285"/>
<path d="M70.4377 76.4448C69.2159 74.8739 67.4995 73.8994 65.5941 73.8994C61.8414 73.8994 58.8015 77.6812 58.8015 82.3502C58.8015 82.8738 58.3651 87.1646 58.0451 88.0228C56.9833 90.7864 55.6598 94.2045 56.2852 97.928C56.8816 101.506 59.2088 104.022 61.2742 106.219C62.5978 107.63 64.0814 109.215 64.0814 110.219L64.4305 127.949C64.4596 130.611 68.2559 131.062 68.925 128.487L73.3613 111.339C73.8849 109.39 74.8594 104.488 72.9104 101.07C72.4158 100.241 71.8776 99.4698 71.3976 98.8298C70.554 97.6953 70.2049 97.1717 70.2049 96.6917C70.2049 96.0081 70.714 94.0299 71.0631 92.5754C71.8485 89.3755 72.6921 86.0446 72.3867 83.1501V82.3502C72.3867 80.052 71.6595 77.9575 70.4377 76.4448Z" fill="#C6B285"/>
<path d="M128.488 61.274L111.339 56.8377C109.39 56.3141 104.489 55.3396 101.071 57.2886C100.241 57.7832 99.4706 58.3213 98.8306 58.8013C97.6961 59.645 97.1724 59.9941 96.6924 59.9941C96.0088 59.9941 94.0306 59.485 92.5761 59.1359C89.3762 58.3505 86.0454 57.5068 83.1509 57.8123H82.3509C80.0528 57.8123 77.9583 58.5395 76.4456 59.7613C74.8747 60.9831 73.9001 62.6994 73.9001 64.6049C73.9001 68.3575 77.6819 71.3975 82.3509 71.3975C82.8745 71.3975 87.1653 71.8338 88.0235 72.1538C90.7871 73.2156 94.2053 74.5393 97.9288 73.9138C101.507 73.3175 104.023 70.9902 106.22 68.9248C107.63 67.6012 109.216 66.1176 110.219 66.1176L127.95 65.7685C130.612 65.7394 131.063 61.9431 128.488 61.274Z" fill="#C6B285"/>
<path d="M29.1296 72.9104C29.9587 72.4159 30.7296 71.8777 31.3696 71.3977C32.5041 70.5541 33.0277 70.205 33.5077 70.205C34.1913 70.205 36.1695 70.714 37.624 71.0631C40.824 71.8486 44.1548 72.6922 47.0493 72.3867H47.8492C50.1474 72.3867 52.2419 71.6595 53.7546 70.4377C55.3255 69.2159 56.3 67.4996 56.3 65.5942C56.3 61.8415 52.5182 58.8015 47.8492 58.8015C47.3256 58.8015 43.0348 58.3652 42.1767 58.0452C39.4131 56.9834 35.995 55.6598 32.2714 56.2852C28.6933 56.8816 26.1769 59.2088 23.9806 61.2742C22.5697 62.5979 20.9843 64.0815 19.9807 64.0815L2.25011 64.4305C-0.411657 64.4596 -0.862551 68.2559 1.71195 68.925L18.8607 73.3613C20.8097 73.8849 25.7115 74.8595 29.1296 72.9104Z" fill="#C6B285"/>
<path d="M84.9252 51.8347C86.7434 50.0166 94.6123 39.2095 92.8087 37.3914C90.9905 35.5732 80.1835 43.4567 78.3653 45.2749C76.5472 47.093 76.5472 50.0311 78.3653 51.8347C80.1835 53.6529 83.1216 53.6529 84.9252 51.8347Z" fill="#C6B285"/>
<path d="M45.2748 78.3646C43.4566 80.1827 35.5876 90.9898 37.3912 92.8079C39.2094 94.6261 50.0165 86.7426 51.8346 84.9244C53.6528 83.1063 53.6528 80.1682 51.8346 78.3646C50.0165 76.5464 47.0784 76.5464 45.2748 78.3646Z" fill="#C6B285"/>
<path d="M51.8346 51.8351C53.6527 50.0169 53.6527 47.0788 51.8346 45.2752C50.0164 43.4571 39.2093 35.5881 37.3911 37.3917C35.573 39.2098 43.4565 50.0169 45.2747 51.8351C47.0928 53.6532 50.031 53.6532 51.8346 51.8351Z" fill="#C6B285"/>
<path d="M92.794 92.8079C94.6121 90.9898 86.7286 80.1827 84.9105 78.3646C83.0923 76.5464 80.1542 76.5464 78.3506 78.3646C76.547 80.1827 76.5324 83.1208 78.3506 84.9244C80.1687 86.7426 90.9758 94.6116 92.794 92.8079Z" fill="#C6B285"/>
</svg>
