<svg width="159" height="77" viewBox="0 0 159 77" fill="none" xmlns="http://www.w3.org/2000/svg">
<path d="M4.975 20.9558C6.085 20.9558 7.185 20.9358 8.295 20.9558C9.035 20.9758 9.405 20.6858 9.335 19.9258C9.235 18.9758 9.185 18.0158 9.005 17.0758C8.695 15.4658 8.585 13.8558 8.765 12.2358C8.965 10.3658 9.365 9.99582 11.135 10.2458C15.375 10.8558 19.645 10.2258 23.885 10.6058C27.275 10.9158 30.645 10.1858 34.005 10.3658C36.725 10.5158 39.425 10.8158 42.155 10.6358C46.635 10.3458 51.105 10.4458 55.585 10.6958C56.385 10.7458 57.195 10.5758 58.005 10.5658C59.585 10.5458 60.515 9.80582 61.475 8.47582C63.575 5.59582 66.435 3.48582 69.745 2.08582C74.495 0.0758173 79.485 -0.654181 84.455 0.665819C88.155 1.65582 91.865 2.99582 94.645 5.94582C95.895 7.27582 97.675 8.05582 98.535 9.80582C98.815 10.3758 99.465 10.0958 99.955 10.0958C103.625 10.1158 107.285 10.2658 110.955 10.5258C113.075 10.6758 115.215 10.5758 117.355 10.5558C126.015 10.4458 134.675 10.2658 143.345 10.2358C145.245 10.2358 147.165 10.2858 149.075 10.5858C150.055 10.7458 150.365 11.1558 150.205 12.0358C149.755 14.5058 149.805 17.0158 149.655 19.5058C149.575 20.9358 149.595 20.8458 150.965 20.9758C152.945 21.1758 154.925 21.2358 156.905 21.1058C157.815 21.0458 158.215 21.3658 158.355 22.3058C158.675 24.4858 158.975 26.5958 158.585 28.8458C157.505 35.1658 154.925 40.7758 151.085 45.8258C147.845 50.0858 144.355 54.1758 140.145 57.5058C135.545 61.1358 130.895 64.6858 125.315 66.8658C121.685 68.2858 118.065 69.7658 114.405 71.0658C109.915 72.6658 105.305 73.9858 100.505 74.4658C97.865 74.7258 95.325 75.5858 92.685 75.9258C90.925 76.1558 89.175 76.1858 87.415 76.2758C84.925 76.4058 82.425 76.6058 79.935 76.7758C76.755 76.9958 73.625 76.4658 70.475 76.2458C66.885 75.9858 63.325 75.5458 59.765 75.0158C57.345 74.6558 55.065 73.8058 52.655 73.4758C48.985 72.9558 45.545 71.6958 42.085 70.3958C38.635 69.1058 35.335 67.5358 31.995 65.9958C25.265 62.8958 19.575 58.4158 14.165 53.5458C9.465 49.3158 5.915 44.1258 3.335 38.3958C1.355 33.9758 -0.0649997 29.3058 0.0150003 24.3358C0.0150003 23.8958 -0.0450003 23.4258 0.0749997 23.0258C0.745 20.8358 -0.095001 20.9358 2.545 20.9658C3.355 20.9658 4.165 20.9658 4.985 20.9658V20.9358L4.975 20.9558ZM70.485 23.9658C70.525 25.0458 70.605 25.9758 70.775 26.9258C71.385 30.3258 73.165 33.2358 74.525 36.3158C75.545 38.6258 77.785 39.8958 79.855 41.0858C80.825 41.6458 82.205 41.8558 83.495 41.5558C87.885 40.5258 91.755 38.7558 94.575 34.9558C96.665 32.1458 98.095 29.2458 97.975 25.6958C97.955 25.2558 97.995 24.8158 98.055 24.3758C98.355 22.0058 98.005 19.6458 97.375 17.4258C96.005 12.6058 92.835 9.09582 88.525 6.63582C87.205 5.88582 85.765 5.47581 84.115 5.64581C81.645 5.89581 79.695 6.99582 77.885 8.54582C77.275 9.06582 76.635 9.56582 75.995 10.0558C73.925 11.6158 72.165 13.4258 71.555 16.0458C70.935 18.6958 70.595 21.3958 70.485 23.9858V23.9658ZM15.115 25.8258C15.665 28.1658 16.925 29.9958 18.015 31.8758C19.945 35.1758 22.215 38.2458 24.965 40.9358C25.535 41.4958 26.005 41.6958 26.865 41.3358C30.595 39.8058 34.385 38.4058 38.135 36.9258C41.415 35.6358 44.755 34.4958 47.935 32.9858C50.455 31.7858 52.955 30.5358 55.535 29.4658C56.775 28.9558 56.405 28.1858 56.315 27.3258C56.215 26.3458 55.995 25.6758 54.775 25.7058C52.345 25.7658 49.925 25.6358 47.515 25.3358C46.135 25.1658 44.735 25.1558 43.345 25.0758C41.615 24.9758 39.975 25.7558 38.335 25.5258C34.795 25.0258 31.285 25.2758 27.755 25.4158C23.585 25.5758 19.425 25.6958 15.125 25.8358L15.115 25.8258ZM143.455 24.9458C141.285 24.9458 139.365 24.8658 137.465 24.9658C132.115 25.2458 126.785 25.3758 121.405 25.0458C115.695 24.6958 109.935 24.7358 104.195 25.2058C103.295 25.2758 102.805 25.4958 102.755 26.4258C102.735 26.7958 102.705 27.1658 102.655 27.5258C102.405 29.2858 102.415 29.2558 104.185 29.8858C105.775 30.4458 107.395 30.9758 108.925 31.6958C116.105 35.0858 123.725 37.3758 130.885 40.7958C132.425 41.5358 132.795 41.3858 134.115 40.0058C136.355 37.6558 138.225 35.0258 139.965 32.2958C141.385 30.0658 142.755 27.8258 143.445 24.9458H143.455ZM129.395 44.6558C127.225 43.8758 125.485 42.8858 123.645 42.1658C116.415 39.3058 109.105 36.6358 101.855 33.8158C100.865 33.4258 100.385 33.5958 99.925 34.4358C99.045 36.0458 98.165 37.6658 96.545 38.6958C96.025 39.0258 95.955 39.5058 96.245 40.0358C96.635 40.7458 96.985 41.4858 97.405 42.1758C99.595 45.7358 101.815 49.2858 104.005 52.8558C104.545 53.7358 104.945 54.6858 105.455 55.5858C105.955 56.4758 106.485 56.9458 107.755 56.5758C111.225 55.5358 114.565 54.2558 117.715 52.4758C118.415 52.0758 119.065 51.5658 119.795 51.2358C123.325 49.6458 126.225 47.1658 129.405 44.6758L129.395 44.6558ZM29.765 44.6458C29.785 45.2458 30.105 45.4458 30.405 45.6658C33.725 48.1158 37.315 50.1158 40.875 52.1758C43.735 53.8358 46.745 55.2158 49.835 56.4058C50.665 56.7258 51.165 56.7458 51.805 55.8658C55.415 50.9358 58.475 45.6458 61.935 40.6258C62.425 39.9058 62.285 39.5058 61.775 38.9358C60.685 37.7358 59.615 36.5158 58.635 35.2258C57.435 33.6358 57.515 33.6758 55.595 34.4258C50.615 36.3558 45.765 38.5958 40.675 40.2758C36.945 41.5058 33.365 43.1758 29.765 44.6358V44.6458ZM77.895 61.2858C78.445 58.5958 77.945 56.2658 77.935 53.9258C77.935 52.0058 77.935 50.0958 77.905 48.1758C77.885 46.4158 77.765 46.2658 76.085 46.2158C74.965 46.1858 73.885 45.9658 72.825 45.6358C71.075 45.0958 69.325 44.4958 67.725 43.5758C66.615 42.9358 65.835 43.0858 65.125 44.1558C64.395 45.2658 63.625 46.3358 62.815 47.3858C60.475 50.4058 58.065 53.3758 56.105 56.6758C55.775 57.2258 55.125 57.6158 55.315 58.4058C62.565 61.4358 70.205 61.3458 77.895 61.2958V61.2858ZM58.135 14.3658C54.855 14.7258 51.805 14.4458 48.745 14.5858C43.175 14.8458 37.585 14.6758 32.015 14.8258C27.915 14.9358 23.795 14.4058 19.705 15.1458C18.645 15.3358 17.495 15.1958 16.405 15.0658C12.775 14.6258 12.235 15.1658 12.905 18.7358C13.335 21.0558 13.355 21.0458 15.725 21.1558C22.125 21.4358 28.525 20.8858 34.925 21.1958C40.135 21.4458 45.355 20.8458 50.575 21.3758C52.025 21.5258 53.515 21.3358 54.995 21.2958C55.525 21.2858 56.035 21.2158 56.225 20.5958C56.845 18.5858 57.465 16.5758 58.135 14.3658ZM100.995 14.3958C101.285 16.1858 102.585 17.6758 102.605 19.5458C102.605 20.4958 103.165 20.8958 104.185 20.8858C108.295 20.8658 112.415 20.9358 116.525 20.9658C125.425 21.0158 134.315 20.4958 143.225 20.7758C144.885 20.8258 145.065 20.6858 145.225 18.9658C145.365 17.5058 145.445 16.0458 145.575 14.3958H100.995ZM102.705 58.5558C102.125 56.6058 100.835 55.3158 100.065 53.7558C98.225 50.0358 95.655 46.8258 93.175 43.5558C92.725 42.9558 92.335 42.7958 91.725 43.2158C89.345 44.8558 86.645 45.4058 83.825 45.6358C82.145 45.7658 82.105 45.8358 82.085 47.6858C82.035 51.7158 82.025 55.7358 82.025 59.7658C82.025 61.4058 82.475 61.7358 84.195 61.5658C86.965 61.2958 89.755 61.1158 92.515 60.7758C95.935 60.3558 99.335 59.7758 102.705 58.5658V58.5558ZM142.125 49.7858C139.855 48.9258 137.735 48.3458 135.745 47.4058C134.035 46.6058 134.005 46.6458 132.715 48.1258C132.025 48.9058 131.215 49.5458 130.355 50.1058C128.995 50.9858 127.605 51.8158 126.225 52.6658C121.475 55.6058 116.605 58.3058 111.275 60.0658C110.795 60.2258 110.365 60.5458 109.895 60.7558C109.495 60.9458 109.265 61.2858 109.535 61.6158C110.775 63.1758 111.235 65.2058 112.715 66.6258C113.295 67.1858 113.805 67.2458 114.475 67.0058C116.885 66.1358 119.335 65.3358 121.645 64.2058C126.455 61.8358 131.065 59.1658 135.505 56.1358C137.725 54.6258 139.215 52.3858 141.425 50.9258C141.705 50.7458 141.815 50.3158 142.135 49.7758L142.125 49.7858ZM16.875 49.8558C17.155 50.6358 17.675 51.0258 18.175 51.4758C22.395 55.2858 27.235 58.1958 32.045 61.1258C35.555 63.2558 39.225 65.1458 43.205 66.3158C43.745 66.4758 44.355 66.9558 44.795 66.2958C45.985 64.4958 47.095 62.6458 48.355 60.6458C45.965 60.2458 44.185 59.0458 42.265 58.1558C39.665 56.9458 37.215 55.4958 34.775 53.9958C32.075 52.3358 29.445 50.5958 27.095 48.5158C25.555 47.1558 24.305 45.9058 22.335 47.7058C22.145 47.8758 21.755 47.8158 21.495 47.9258C19.955 48.5658 18.425 49.2158 16.885 49.8758L16.875 49.8558ZM49.135 67.7058C49.505 68.2258 49.985 68.2158 50.395 68.3558C53.265 69.3258 56.235 69.8258 59.215 70.3358C64.585 71.2558 69.985 71.9558 75.415 72.3358C77.855 72.5058 77.865 72.4458 77.925 70.1258C77.945 69.2458 78.085 68.3758 77.965 67.4858C77.765 66.0458 77.585 65.7558 76.235 65.8658C72.295 66.2058 68.485 65.2558 64.655 64.6558C61.175 64.1158 57.715 63.3758 54.345 62.2758C53.185 61.8958 52.475 62.2458 51.755 63.2458C50.725 64.6758 49.995 66.2458 49.135 67.6958V67.7058ZM21.355 43.3258C20.685 42.4458 20.055 41.5458 19.355 40.7058C16.425 37.1758 14.095 33.2858 12.245 29.0958C10.425 24.9758 10.445 24.9658 5.895 25.6158C5.745 25.6358 5.605 25.6358 5.455 25.6458C4.575 25.6858 4.355 26.1758 4.465 26.9758C4.675 28.5758 4.915 30.1658 5.375 31.7158C6.875 36.7358 8.765 41.5458 12.185 45.6358C12.805 46.3858 13.295 46.7058 14.195 46.2958C16.525 45.2258 19.025 44.5858 21.355 43.3258ZM154.415 26.6958C154.465 25.3758 154.075 24.9958 152.635 24.9658C151.825 24.9458 151.015 24.9458 150.205 24.9358C148.255 24.9058 148.225 24.8958 147.545 26.6758C145.765 31.2858 143.905 35.8158 140.355 39.4458C139.545 40.2758 138.955 41.3058 138.025 42.0758C137.575 42.4458 137.085 43.2058 138.095 43.6458C140.115 44.5158 142.145 45.3658 144.185 46.1858C144.845 46.4558 145.345 46.3158 145.885 45.6758C148.065 43.0858 150.165 40.4858 151.525 37.3058C152.995 33.8958 153.955 30.3758 154.405 26.6958H154.415ZM82.095 66.2558C81.675 67.2958 82.235 68.2758 82.205 69.2958C82.075 72.7058 82.335 73.0158 85.615 72.5958C91.595 71.8258 97.675 71.7258 103.535 70.1158C105.465 69.5858 107.505 69.4158 109.505 68.5758C108.455 67.0458 107.575 65.6958 106.635 64.3858C105.305 62.5558 105.285 62.5958 102.975 63.2158C101.845 63.5158 100.705 63.7958 99.515 63.8958C97.835 64.0358 96.175 64.3658 94.515 64.6958C90.465 65.5058 86.365 65.7958 82.095 66.2558Z" fill="#806D4B"/>
</svg>
